<svg id="svg" version="1.1" xmlns="http://www.w3.org/2000/svg" xmlns:xlink="http://www.w3.org/1999/xlink" width="100" height="100" viewBox="50, -150, 400,500"><g id="svgg"><path id="path0" d="M207.154 171.805 C 199.347 173.945,195.159 180.159,195.159 189.600 C 195.159 204.699,207.203 211.809,222.100 205.505 L 224.000 204.701 224.000 202.105 L 224.000 199.508 222.900 200.234 C 210.635 208.324,199.937 203.261,199.954 189.374 C 199.970 175.836,210.777 170.575,222.319 178.486 L 224.038 179.665 223.919 176.965 C 223.770 173.592,223.622 173.485,216.554 171.632 C 214.416 171.071,209.501 171.162,207.154 171.805 M80.000 172.589 C 80.000 172.913,80.557 175.298,81.237 177.889 C 85.031 192.339,86.828 199.163,87.192 200.500 C 87.416 201.325,87.774 202.675,87.986 203.500 C 88.929 207.166,88.579 206.848,91.528 206.718 C 93.840 206.616,94.207 206.494,94.306 205.800 C 94.418 205.017,94.705 203.823,95.557 200.600 C 95.789 199.720,97.082 194.500,98.429 189.000 C 101.378 176.956,101.222 177.260,102.274 181.482 C 102.592 182.757,103.023 184.430,103.232 185.200 C 103.441 185.970,103.774 187.320,103.973 188.200 C 104.171 189.080,105.083 192.680,106.000 196.200 C 106.917 199.720,107.828 203.377,108.026 204.327 C 108.224 205.276,108.490 206.221,108.617 206.427 C 108.889 206.868,113.997 206.938,114.007 206.500 C 114.012 206.335,114.470 204.490,115.026 202.400 C 117.439 193.331,122.800 172.538,122.800 172.249 C 122.800 171.844,118.868 171.966,118.613 172.379 C 118.430 172.675,112.773 195.156,111.773 199.558 C 111.294 201.670,110.429 199.413,108.419 190.800 C 108.188 189.810,107.039 185.220,105.865 180.600 L 103.731 172.200 101.397 172.200 L 99.063 172.200 95.618 186.080 C 93.724 193.714,92.063 200.071,91.927 200.206 C 91.557 200.576,84.400 173.990,84.400 172.244 C 84.400 172.110,83.410 172.000,82.200 172.000 C 80.530 172.000,80.000 172.142,80.000 172.589 M130.000 189.400 L 130.000 206.800 132.200 206.800 L 134.400 206.800 134.400 200.977 L 134.400 195.153 136.199 193.277 L 137.998 191.400 139.899 193.410 C 142.104 195.742,146.548 200.708,149.645 204.300 L 151.800 206.800 154.775 206.800 L 157.750 206.800 156.748 205.700 C 154.399 203.122,144.501 191.879,143.050 190.142 C 141.583 188.386,141.658 188.171,144.907 184.788 C 146.498 183.132,149.862 179.622,152.383 176.988 L 156.965 172.200 154.385 172.078 L 151.804 171.957 149.597 174.278 C 148.384 175.555,145.233 178.924,142.595 181.765 C 136.300 188.545,135.249 189.600,134.787 189.600 C 134.549 189.600,134.400 186.198,134.400 180.800 L 134.400 172.000 132.200 172.000 L 130.000 172.000 130.000 189.400 M163.600 189.400 L 163.600 206.800 171.985 206.800 C 183.105 206.800,186.379 205.600,188.777 200.648 C 191.108 195.833,188.006 187.600,183.862 187.600 C 182.584 187.600,182.766 186.677,184.353 185.106 C 186.739 182.743,187.396 179.801,186.185 176.902 C 184.502 172.874,181.827 172.005,171.100 172.002 L 163.600 172.000 163.600 189.400 M238.849 173.200 C 238.602 173.860,238.233 174.895,238.028 175.500 C 237.823 176.105,236.758 179.030,235.660 182.000 C 234.562 184.970,232.548 190.460,231.184 194.200 C 229.820 197.940,228.276 202.169,227.752 203.598 C 226.520 206.961,226.460 206.800,228.951 206.800 C 231.414 206.800,231.066 207.295,233.236 200.700 L 234.520 196.800 242.216 196.800 L 249.913 196.800 251.616 201.800 L 253.319 206.800 255.659 206.800 C 256.947 206.800,258.000 206.738,258.000 206.662 C 258.000 206.585,257.447 205.010,256.772 203.162 C 256.097 201.313,254.854 197.910,254.012 195.600 C 253.169 193.290,251.816 189.600,251.006 187.400 C 250.196 185.200,249.384 182.950,249.202 182.400 C 249.020 181.850,248.298 179.870,247.596 178.000 C 246.895 176.130,246.223 174.240,246.103 173.800 C 245.675 172.231,245.174 172.000,242.200 172.000 C 239.341 172.000,239.290 172.018,238.849 173.200 M178.712 176.211 C 181.202 176.950,182.000 177.975,182.000 180.430 C 182.000 184.616,179.804 185.924,172.700 185.970 L 168.000 186.000 168.000 180.800 L 168.000 175.600 172.327 175.600 C 175.044 175.600,177.421 175.827,178.712 176.211 M243.145 178.100 C 243.356 178.815,244.621 182.348,245.957 185.950 C 247.292 189.553,248.288 192.658,248.169 192.850 C 247.906 193.276,236.520 193.323,236.269 192.900 C 235.996 192.439,241.510 177.504,242.090 177.136 C 242.370 176.958,242.637 176.809,242.681 176.806 C 242.726 176.803,242.935 177.385,243.145 178.100 M179.680 190.050 C 184.206 191.012,186.319 194.587,184.775 198.674 C 183.491 202.072,180.589 203.200,173.127 203.200 L 168.000 203.200 168.000 196.667 C 168.000 193.073,168.120 190.013,168.267 189.867 C 168.707 189.426,177.401 189.566,179.680 190.050 M100.100 232.255 C 99.711 232.420,99.600 236.324,99.600 249.854 L 99.600 267.242 101.700 267.121 L 103.800 267.000 103.908 258.500 L 104.016 250.000 112.800 250.000 L 121.584 250.000 121.692 258.500 L 121.800 267.000 123.155 267.129 C 123.901 267.201,124.936 267.152,125.455 267.022 L 126.400 266.785 126.400 249.635 C 126.400 230.806,126.563 232.000,124.000 232.000 C 121.557 232.000,121.600 231.871,121.600 239.235 C 121.600 247.311,122.741 246.470,112.000 246.313 L 104.200 246.200 104.000 239.200 L 103.800 232.200 102.200 232.122 C 101.320 232.079,100.375 232.139,100.100 232.255 M141.429 240.787 C 131.758 244.662,131.272 262.041,140.704 266.673 C 147.199 269.862,155.291 266.425,157.265 259.640 C 160.840 247.348,151.829 236.620,141.429 240.787 M174.969 240.548 C 174.292 240.796,172.980 241.502,172.055 242.115 C 170.205 243.340,169.600 243.257,169.600 241.776 C 169.600 240.871,169.454 240.800,167.595 240.800 L 165.589 240.800 165.695 253.900 L 165.800 267.000 167.600 267.000 L 169.400 267.000 169.507 257.087 L 169.614 247.174 171.433 245.887 C 175.692 242.875,179.679 242.839,181.470 245.795 C 182.109 246.849,182.225 248.252,182.400 257.000 L 182.600 267.000 184.600 267.000 L 186.600 267.000 186.707 256.943 C 186.785 249.566,186.945 246.779,187.307 246.484 C 190.368 243.981,194.857 243.028,197.110 244.402 C 199.195 245.673,199.356 246.503,199.588 257.200 L 199.800 267.000 201.700 267.122 L 203.600 267.244 203.600 257.072 C 203.600 245.943,203.368 244.460,201.284 242.273 C 198.233 239.069,193.216 239.153,188.254 242.491 L 185.908 244.069 184.564 242.644 C 182.239 240.179,178.310 239.320,174.969 240.548 M218.978 240.548 C 213.616 242.532,210.418 247.607,210.405 254.154 C 210.384 264.476,218.243 269.906,229.224 267.154 C 233.459 266.092,233.600 265.971,233.600 263.397 L 233.600 261.292 231.300 262.392 C 223.137 266.298,215.745 263.304,214.893 255.746 L 214.696 254.000 223.648 253.995 C 235.173 253.988,234.554 254.172,234.201 250.843 C 233.299 242.336,226.525 237.755,218.978 240.548 M149.968 244.931 C 155.950 248.890,154.319 262.529,147.694 263.942 C 142.256 265.102,138.845 261.784,138.489 254.989 C 138.010 245.824,143.736 240.807,149.968 244.931 M225.640 244.055 C 228.104 244.881,230.000 247.400,230.000 249.849 L 230.000 250.800 222.400 250.800 C 213.930 250.800,214.131 250.880,215.557 248.084 C 217.401 244.472,221.725 242.744,225.640 244.055 " stroke="none" fill="#f5f6f6" fill-rule="evenodd"></path><path id="path1" d="M2.800 26.600 C 2.800 43.752,2.666 52.000,2.388 52.000 C 2.110 52.000,2.044 55.809,2.184 63.700 C 2.298 70.135,2.491 83.123,2.612 92.561 C 2.869 112.547,2.762 112.000,6.427 112.000 C 7.512 112.000,8.400 112.180,8.400 112.400 C 8.400 112.620,9.199 112.800,10.176 112.800 C 11.153 112.800,12.064 112.980,12.200 113.200 C 12.336 113.420,13.146 113.600,14.000 113.600 C 14.854 113.600,15.664 113.780,15.800 114.000 C 15.936 114.220,16.757 114.400,17.624 114.400 C 18.491 114.400,19.200 114.580,19.200 114.800 C 19.200 115.020,19.999 115.200,20.976 115.200 C 21.953 115.200,22.864 115.380,23.000 115.600 C 23.136 115.820,23.946 116.000,24.800 116.000 C 25.654 116.000,26.464 116.180,26.600 116.400 C 26.736 116.620,28.086 116.800,29.600 116.800 C 31.114 116.800,32.464 116.980,32.600 117.200 C 32.736 117.420,33.726 117.600,34.800 117.600 C 35.874 117.600,36.864 117.780,37.000 118.000 C 37.136 118.220,37.777 118.400,38.424 118.400 C 39.071 118.400,39.600 118.580,39.600 118.800 C 39.600 119.020,40.140 119.200,40.800 119.200 C 41.460 119.200,42.000 119.380,42.000 119.600 C 42.000 119.820,42.343 120.000,42.762 120.000 C 43.421 120.000,44.589 120.486,47.695 122.050 C 48.077 122.243,48.628 122.400,48.920 122.400 C 49.212 122.400,49.698 123.030,50.000 123.800 C 50.302 124.570,50.696 125.200,50.875 125.200 C 51.054 125.200,51.200 125.560,51.200 126.000 C 51.200 126.440,51.380 126.800,51.600 126.800 C 51.850 126.800,52.000 129.200,52.000 133.200 C 52.000 137.200,51.850 139.600,51.600 139.600 C 51.380 139.600,51.200 139.891,51.200 140.247 C 51.200 141.506,48.748 143.187,46.900 143.194 C 45.965 143.197,45.200 143.380,45.200 143.600 C 45.200 143.820,44.761 144.000,44.224 144.000 C 43.687 144.000,43.136 144.180,43.000 144.400 C 42.864 144.620,42.403 144.800,41.976 144.800 C 41.467 144.800,41.200 145.075,41.200 145.600 C 41.200 146.040,41.020 146.400,40.800 146.400 C 40.580 146.400,40.400 146.760,40.400 147.200 C 40.400 147.640,40.220 148.000,40.000 148.000 C 39.780 148.000,39.600 148.720,39.600 149.600 C 39.600 150.480,39.780 151.200,40.000 151.200 C 40.220 151.200,40.400 151.470,40.400 151.800 C 40.400 152.130,40.572 152.400,40.782 152.400 C 41.872 152.400,43.200 154.484,43.200 156.195 C 43.200 157.162,43.380 158.064,43.600 158.200 C 43.820 158.336,44.000 159.052,44.000 159.790 C 44.000 160.529,44.135 161.193,44.301 161.267 C 44.707 161.447,46.400 166.497,46.400 167.529 C 46.400 167.982,46.580 168.464,46.800 168.600 C 47.020 168.736,47.200 169.366,47.200 170.000 C 47.200 170.634,47.380 171.264,47.600 171.400 C 47.820 171.536,48.000 172.166,48.000 172.800 C 48.000 173.434,48.180 174.064,48.400 174.200 C 48.620 174.336,48.800 174.977,48.800 175.624 C 48.800 176.271,48.980 176.800,49.200 176.800 C 49.420 176.800,49.600 177.042,49.600 177.338 C 49.600 177.634,49.960 178.202,50.400 178.600 C 51.254 179.373,51.458 180.593,50.800 181.000 C 50.241 181.345,50.282 189.322,50.845 189.885 C 51.478 190.518,50.924 191.200,49.776 191.200 C 49.239 191.200,48.800 191.380,48.800 191.600 C 48.800 191.820,48.485 192.001,48.100 192.001 C 46.826 192.004,44.801 193.529,44.789 194.494 C 44.783 194.992,44.077 196.165,43.220 197.100 L 41.662 198.800 37.202 198.800 C 31.913 198.800,31.606 198.621,31.587 195.529 C 31.557 190.331,25.240 191.003,22.723 196.471 C 22.452 197.060,22.088 197.455,21.915 197.348 C 21.742 197.240,21.600 197.603,21.600 198.153 C 21.600 198.703,21.420 199.264,21.200 199.400 C 20.980 199.536,20.800 199.997,20.800 200.424 C 20.800 200.851,20.620 201.200,20.400 201.200 C 20.180 201.200,20.000 201.740,20.000 202.400 C 20.000 203.060,19.820 203.600,19.600 203.600 C 19.380 203.600,19.200 204.140,19.200 204.800 C 19.200 205.460,19.020 206.000,18.800 206.000 C 18.547 206.000,18.400 208.867,18.400 213.800 C 18.400 218.733,18.547 221.600,18.800 221.600 C 19.020 221.600,19.200 221.949,19.200 222.376 C 19.200 222.803,19.380 223.264,19.600 223.400 C 19.827 223.540,20.000 225.537,20.000 228.024 C 20.000 230.675,20.158 232.400,20.400 232.400 C 20.620 232.400,20.800 233.109,20.800 233.976 C 20.800 234.843,20.620 235.664,20.400 235.800 C 20.180 235.936,20.000 237.477,20.000 239.224 C 20.000 241.075,20.167 242.400,20.400 242.400 C 20.620 242.400,20.800 242.940,20.800 243.600 C 20.800 244.260,20.980 244.800,21.200 244.800 C 21.420 244.800,21.600 245.340,21.600 246.000 C 21.600 246.660,21.780 247.200,22.000 247.200 C 22.220 247.200,22.400 247.740,22.400 248.400 C 22.400 249.060,22.580 249.600,22.800 249.600 C 23.020 249.600,23.200 249.870,23.200 250.200 C 23.200 250.530,23.380 250.800,23.600 250.800 C 23.820 250.800,24.000 251.070,24.000 251.400 C 24.000 251.730,24.180 252.000,24.400 252.000 C 24.620 252.000,24.800 252.242,24.800 252.539 C 24.800 253.707,26.102 255.564,28.557 257.899 C 29.971 259.244,31.247 260.717,31.391 261.172 C 31.536 261.628,31.822 262.000,32.027 262.000 C 32.232 262.000,32.400 262.360,32.400 262.800 C 32.400 263.240,32.535 263.601,32.700 263.603 C 33.059 263.607,34.000 265.544,34.000 266.280 C 34.000 266.566,34.180 266.800,34.400 266.800 C 34.620 266.800,34.800 267.419,34.800 268.176 C 34.800 268.933,34.980 269.664,35.200 269.800 C 35.420 269.936,35.600 270.397,35.600 270.824 C 35.600 271.251,35.780 271.600,36.000 271.600 C 36.220 271.600,36.400 272.050,36.400 272.600 C 36.400 273.150,36.580 273.600,36.800 273.600 C 37.020 273.600,37.200 274.028,37.200 274.552 C 37.200 275.121,37.844 276.167,38.800 277.152 C 39.680 278.059,40.400 279.071,40.400 279.400 C 40.400 279.730,40.580 280.000,40.800 280.000 C 41.020 280.000,41.200 280.345,41.200 280.767 C 41.200 281.188,41.346 281.593,41.524 281.667 C 41.702 281.740,42.458 282.875,43.204 284.190 C 43.951 285.504,45.515 287.704,46.681 289.078 C 47.846 290.452,48.800 291.761,48.800 291.988 C 48.800 292.215,48.980 292.400,49.200 292.400 C 49.420 292.400,49.600 292.636,49.600 292.925 C 49.600 293.213,49.960 293.836,50.400 294.308 C 50.840 294.780,51.200 295.444,51.200 295.783 C 51.200 296.122,51.380 296.400,51.600 296.400 C 51.820 296.400,52.000 296.688,52.000 297.040 C 52.000 297.685,54.202 300.000,54.816 300.000 C 54.998 300.000,56.026 300.855,57.100 301.900 C 58.174 302.945,59.919 304.520,60.976 305.400 C 62.033 306.280,63.279 307.328,63.744 307.729 C 64.209 308.130,65.087 308.557,65.695 308.679 C 66.303 308.801,66.800 309.058,66.800 309.250 C 66.800 309.443,67.160 309.600,67.600 309.600 C 68.040 309.600,68.400 309.780,68.400 310.000 C 68.400 310.220,68.760 310.400,69.200 310.400 C 69.640 310.400,70.000 310.580,70.000 310.800 C 70.000 311.020,70.236 311.200,70.525 311.200 C 70.813 311.200,71.436 311.560,71.908 312.000 C 72.380 312.440,73.004 312.800,73.295 312.800 C 73.586 312.800,74.083 313.160,74.400 313.600 C 74.717 314.040,75.282 314.400,75.655 314.400 C 76.028 314.400,76.393 314.535,76.467 314.700 C 76.688 315.199,80.022 316.800,80.838 316.800 C 81.257 316.800,81.600 316.980,81.600 317.200 C 81.600 317.420,82.039 317.600,82.576 317.600 C 83.113 317.600,83.664 317.780,83.800 318.000 C 83.936 318.220,84.397 318.400,84.824 318.400 C 85.251 318.400,85.600 318.580,85.600 318.800 C 85.600 319.020,85.960 319.200,86.400 319.200 C 86.840 319.200,87.200 319.380,87.200 319.600 C 87.200 319.820,87.639 320.000,88.176 320.000 C 88.713 320.000,89.264 320.180,89.400 320.400 C 89.536 320.620,89.997 320.800,90.424 320.800 C 90.851 320.800,91.200 320.941,91.200 321.113 C 91.200 321.392,92.265 321.753,96.200 322.806 C 96.860 322.983,98.043 323.324,98.828 323.564 C 99.614 323.804,100.638 324.000,101.105 324.000 C 101.571 324.000,102.049 324.156,102.168 324.347 C 102.286 324.539,103.068 324.805,103.906 324.939 C 104.744 325.073,105.821 325.546,106.298 325.991 C 106.776 326.436,107.444 326.800,107.783 326.800 C 108.122 326.800,108.400 326.980,108.400 327.200 C 108.400 327.420,108.760 327.600,109.200 327.600 C 109.640 327.600,110.000 327.780,110.000 328.000 C 110.000 328.220,110.540 328.400,111.200 328.400 C 111.860 328.400,112.400 328.580,112.400 328.800 C 112.400 329.020,113.210 329.200,114.200 329.200 C 115.190 329.200,116.000 329.380,116.000 329.600 C 116.000 329.820,116.720 330.000,117.600 330.000 C 118.480 330.000,119.200 330.180,119.200 330.400 C 119.200 330.620,119.729 330.800,120.376 330.800 C 121.023 330.800,121.664 330.980,121.800 331.200 C 121.936 331.420,122.476 331.600,123.000 331.600 C 123.524 331.600,124.064 331.780,124.200 332.000 C 124.336 332.220,124.851 332.400,125.344 332.400 C 126.379 332.400,128.392 333.257,128.397 333.700 C 128.399 333.865,128.760 334.000,129.200 334.000 C 129.640 334.000,130.000 334.180,130.000 334.400 C 130.000 334.620,130.236 334.800,130.525 334.800 C 130.813 334.800,131.436 335.160,131.908 335.600 C 132.380 336.040,133.044 336.400,133.383 336.400 C 133.722 336.400,134.000 336.580,134.000 336.800 C 134.000 337.020,134.529 337.200,135.176 337.200 C 135.823 337.200,136.464 337.380,136.600 337.600 C 136.736 337.820,137.647 338.000,138.624 338.000 C 139.601 338.000,140.400 338.162,140.400 338.360 C 140.400 338.558,141.165 338.817,142.100 338.936 C 143.035 339.055,144.790 339.354,146.000 339.600 C 147.210 339.846,149.010 340.146,150.000 340.266 C 150.990 340.387,151.980 340.630,152.200 340.807 C 152.420 340.983,154.261 341.256,156.292 341.415 C 158.323 341.573,159.887 341.859,159.768 342.051 C 159.650 342.243,159.923 342.400,160.376 342.400 C 160.829 342.400,161.200 342.580,161.200 342.800 C 161.200 343.020,161.560 343.200,162.000 343.200 C 162.440 343.200,162.800 343.380,162.800 343.600 C 162.800 343.820,163.340 344.000,164.000 344.000 C 164.660 344.000,165.200 344.180,165.200 344.400 C 165.200 344.620,165.560 344.800,166.000 344.800 C 166.440 344.800,166.800 344.980,166.800 345.200 C 166.800 345.420,167.340 345.600,168.000 345.600 C 168.660 345.600,169.200 345.780,169.200 346.000 C 169.200 346.220,170.100 346.400,171.200 346.400 C 172.300 346.400,173.200 346.580,173.200 346.800 C 173.200 347.049,175.525 347.200,179.376 347.200 C 183.063 347.200,185.652 347.361,185.800 347.600 C 186.133 348.139,200.667 348.139,201.000 347.600 C 201.136 347.380,202.306 347.200,203.600 347.200 C 204.894 347.200,206.064 347.020,206.200 346.800 C 206.336 346.580,206.797 346.400,207.224 346.400 C 207.651 346.400,208.000 346.220,208.000 346.000 C 208.000 345.780,208.360 345.600,208.800 345.600 C 209.240 345.600,209.600 345.420,209.600 345.200 C 209.600 344.980,209.960 344.800,210.400 344.800 C 210.840 344.800,211.200 344.620,211.200 344.400 C 211.200 344.180,211.549 344.000,211.976 344.000 C 212.403 344.000,212.864 343.820,213.000 343.600 C 213.136 343.380,214.486 343.200,216.000 343.200 C 217.514 343.200,218.864 343.020,219.000 342.800 C 219.136 342.580,220.036 342.400,221.000 342.400 C 221.964 342.400,222.848 342.247,222.964 342.059 C 223.079 341.872,224.382 341.605,225.859 341.467 C 227.335 341.330,228.727 341.033,228.952 340.808 C 229.201 340.559,232.361 340.400,237.080 340.400 C 241.960 340.400,244.800 340.253,244.800 340.000 C 244.800 339.780,245.160 339.600,245.600 339.600 C 246.040 339.600,246.400 339.420,246.400 339.200 C 246.400 338.980,246.572 338.800,246.782 338.800 C 246.993 338.800,248.081 338.260,249.200 337.600 C 250.319 336.940,251.587 336.400,252.018 336.400 C 252.448 336.400,252.800 336.220,252.800 336.000 C 252.800 335.780,253.072 335.600,253.405 335.600 C 253.738 335.600,254.368 335.420,254.805 335.200 C 255.242 334.980,255.958 334.620,256.395 334.400 C 256.832 334.180,257.552 334.000,257.995 334.000 C 258.438 334.000,258.800 333.853,258.800 333.672 C 258.800 333.492,259.700 333.100,260.800 332.800 C 261.900 332.500,262.800 332.108,262.800 331.928 C 262.800 331.747,263.340 331.600,264.000 331.600 C 264.660 331.600,265.200 331.420,265.200 331.200 C 265.200 330.980,265.562 330.800,266.005 330.800 C 266.448 330.800,267.168 330.620,267.605 330.400 C 268.042 330.180,268.758 329.820,269.195 329.600 C 269.632 329.380,270.352 329.200,270.795 329.200 C 271.238 329.200,271.600 329.020,271.600 328.800 C 271.600 328.580,272.129 328.400,272.776 328.400 C 273.423 328.400,274.064 328.220,274.200 328.000 C 274.336 327.780,274.977 327.600,275.624 327.600 C 276.271 327.600,276.800 327.420,276.800 327.200 C 276.800 326.980,277.160 326.800,277.600 326.800 C 278.040 326.800,278.400 326.620,278.400 326.400 C 278.400 326.180,278.760 326.000,279.200 326.000 C 279.640 326.000,280.000 325.820,280.000 325.600 C 280.000 325.380,280.255 325.200,280.567 325.200 C 281.064 325.200,284.060 323.887,286.095 322.779 C 286.477 322.570,287.062 322.400,287.395 322.400 C 287.728 322.400,288.000 322.220,288.000 322.000 C 288.000 321.780,288.255 321.600,288.567 321.600 C 288.878 321.600,289.193 321.465,289.267 321.300 C 289.392 321.017,290.212 320.293,294.965 316.265 C 301.055 311.105,307.013 304.656,309.200 300.857 C 309.530 300.284,310.295 299.334,310.900 298.747 C 311.505 298.160,312.000 297.519,312.000 297.324 C 312.000 297.128,312.720 296.172,313.600 295.200 C 314.480 294.228,315.200 293.284,315.200 293.103 C 315.200 292.922,315.785 292.173,316.500 291.440 C 317.215 290.706,318.143 289.677,318.563 289.153 C 318.983 288.629,319.883 287.559,320.563 286.775 C 321.243 285.991,322.340 284.655,323.000 283.804 C 323.660 282.954,324.425 282.033,324.700 281.758 C 324.975 281.482,325.200 281.056,325.200 280.809 C 325.200 280.563,326.460 279.119,328.000 277.600 C 329.540 276.081,330.800 274.738,330.800 274.616 C 330.800 274.493,331.340 273.828,332.000 273.137 C 332.660 272.446,333.200 271.678,333.200 271.429 C 333.200 271.180,333.560 270.717,334.000 270.400 C 334.440 270.083,334.800 269.569,334.800 269.259 C 334.800 268.948,335.142 268.397,335.560 268.035 C 336.750 267.003,337.887 246.927,336.816 245.856 C 336.587 245.627,336.400 244.666,336.400 243.720 C 336.400 242.774,336.220 242.000,336.000 242.000 C 335.780 242.000,335.600 241.548,335.600 240.995 C 335.600 240.442,335.392 239.587,335.138 239.095 C 334.167 237.218,334.000 236.793,334.000 236.205 C 334.000 235.872,333.820 235.600,333.600 235.600 C 333.380 235.600,333.200 235.240,333.200 234.800 C 333.200 234.360,333.020 234.000,332.800 234.000 C 332.580 234.000,332.400 233.561,332.400 233.024 C 332.400 232.487,332.220 231.936,332.000 231.800 C 331.780 231.664,331.600 231.124,331.600 230.600 C 331.600 230.076,331.420 229.536,331.200 229.400 C 330.980 229.264,330.800 228.713,330.800 228.176 C 330.800 227.639,330.620 227.200,330.400 227.200 C 330.180 227.200,330.000 226.401,330.000 225.424 C 330.000 224.447,329.820 223.536,329.600 223.400 C 329.364 223.254,329.200 220.863,329.200 217.576 C 329.200 214.125,329.048 212.000,328.800 212.000 C 328.580 212.000,328.399 211.685,328.397 211.300 C 328.395 210.899,327.723 210.236,326.823 209.748 L 325.252 208.895 323.826 210.202 C 323.042 210.920,322.400 211.709,322.400 211.954 C 322.400 212.199,322.220 212.400,322.000 212.400 C 321.780 212.400,321.600 212.603,321.600 212.852 C 321.600 213.492,317.243 217.600,316.564 217.600 C 316.254 217.600,316.000 217.750,316.000 217.932 C 316.000 218.115,315.505 218.520,314.900 218.832 C 314.295 219.145,313.451 219.715,313.025 220.100 C 312.598 220.485,312.013 220.800,311.725 220.800 C 311.436 220.800,311.200 220.980,311.200 221.200 C 311.200 221.420,310.570 221.600,309.800 221.600 C 309.030 221.600,308.400 221.420,308.400 221.200 C 308.400 220.980,307.950 220.800,307.400 220.800 C 306.850 220.800,306.400 220.658,306.400 220.485 C 306.400 219.865,302.473 216.000,301.843 216.000 C 301.489 216.000,301.200 215.820,301.200 215.600 C 301.200 215.380,300.840 215.200,300.400 215.200 C 299.960 215.200,299.600 215.020,299.600 214.800 C 299.600 214.580,299.312 214.400,298.960 214.400 C 298.609 214.400,297.844 213.898,297.260 213.285 C 296.677 212.671,295.570 211.730,294.800 211.193 C 294.030 210.657,292.987 209.808,292.482 209.309 C 291.977 208.809,291.212 208.400,290.782 208.400 C 290.352 208.400,290.000 208.220,290.000 208.000 C 290.000 207.780,289.651 207.600,289.224 207.600 C 288.797 207.600,288.336 207.420,288.200 207.200 C 287.592 206.216,285.600 207.267,285.600 208.571 C 285.600 208.917,285.420 209.200,285.200 209.200 C 284.980 209.200,284.800 209.470,284.800 209.800 C 284.800 210.130,284.620 210.400,284.400 210.400 C 284.180 210.400,284.000 210.597,284.000 210.838 C 284.000 211.897,282.316 213.600,281.270 213.600 C 279.027 213.600,276.337 208.828,278.000 207.800 C 278.220 207.664,278.400 206.958,278.400 206.230 C 278.400 204.815,280.885 201.881,284.149 199.442 C 286.945 197.353,290.021 193.997,290.266 192.768 C 290.397 192.117,290.652 191.492,290.833 191.379 C 291.015 191.267,291.285 190.097,291.434 188.779 C 291.583 187.461,291.862 186.286,292.053 186.167 C 292.545 185.863,292.495 174.506,292.000 174.200 C 291.780 174.064,291.585 172.298,291.566 170.276 C 291.510 164.176,289.556 154.190,288.316 153.667 C 288.142 153.593,288.000 153.188,288.000 152.767 C 288.000 152.345,287.865 151.999,287.700 151.997 C 287.535 151.995,287.213 151.590,286.983 151.097 C 286.754 150.604,286.194 149.480,285.739 148.600 C 283.630 144.520,283.200 143.431,283.200 142.162 C 283.200 141.413,283.380 140.800,283.600 140.800 C 283.820 140.800,284.000 139.810,284.000 138.600 C 284.000 137.390,284.159 136.400,284.353 136.400 C 284.548 136.400,284.807 136.085,284.929 135.700 C 285.461 134.021,287.258 131.600,287.971 131.600 C 288.207 131.600,288.400 131.420,288.400 131.200 C 288.400 130.980,288.630 130.800,288.912 130.800 C 289.193 130.800,289.683 130.440,290.000 130.000 C 290.317 129.560,290.807 129.200,291.088 129.200 C 291.370 129.200,291.600 128.840,291.600 128.400 C 291.600 127.960,291.780 127.600,292.000 127.600 C 292.220 127.600,292.400 127.240,292.400 126.800 C 292.400 126.360,292.580 126.000,292.800 126.000 C 293.020 126.000,293.200 125.730,293.200 125.400 C 293.200 125.070,293.380 124.800,293.600 124.800 C 293.820 124.800,294.000 124.440,294.000 124.000 C 294.000 123.560,294.180 123.200,294.400 123.200 C 294.620 123.200,294.800 122.840,294.800 122.400 C 294.800 121.960,294.980 121.600,295.200 121.600 C 295.420 121.600,295.600 121.240,295.600 120.800 C 295.600 120.360,295.780 120.000,296.000 120.000 C 296.220 120.000,296.400 119.640,296.400 119.200 C 296.400 118.760,296.580 118.400,296.800 118.400 C 297.020 118.400,297.200 118.051,297.200 117.624 C 297.200 117.197,297.380 116.736,297.600 116.600 C 297.820 116.464,298.000 115.744,298.000 115.000 C 298.000 114.256,298.180 113.536,298.400 113.400 C 298.620 113.264,298.800 112.364,298.800 111.400 C 298.800 110.436,298.980 109.536,299.200 109.400 C 299.420 109.264,299.600 107.813,299.600 106.176 C 299.600 104.459,299.769 103.200,300.000 103.200 C 300.220 103.200,300.400 102.761,300.400 102.224 C 300.400 101.687,300.580 101.136,300.800 101.000 C 301.020 100.864,301.200 100.313,301.200 99.776 C 301.200 99.239,301.380 98.800,301.600 98.800 C 301.820 98.800,302.000 98.566,302.000 98.280 C 302.000 97.425,302.968 95.606,303.425 95.603 C 303.658 95.601,304.236 95.240,304.708 94.800 C 305.180 94.360,305.754 94.000,305.983 94.000 C 306.212 94.000,306.400 93.820,306.400 93.600 C 306.400 93.380,306.670 93.200,307.000 93.200 C 307.330 93.200,307.600 93.020,307.600 92.800 C 307.600 92.580,307.855 92.400,308.167 92.400 C 308.478 92.400,308.793 92.254,308.867 92.076 C 309.040 91.655,313.200 89.600,313.879 89.600 C 314.165 89.600,314.400 89.420,314.400 89.200 C 314.400 88.980,314.760 88.800,315.200 88.800 C 315.640 88.800,316.000 88.620,316.000 88.400 C 316.000 88.180,316.360 88.000,316.800 88.000 C 317.240 88.000,317.600 87.820,317.600 87.600 C 317.600 87.380,317.878 87.200,318.218 87.200 C 318.558 87.200,319.273 86.763,319.807 86.229 C 320.341 85.695,321.309 84.944,321.958 84.561 C 322.607 84.178,323.376 83.400,323.669 82.832 C 323.961 82.265,324.425 81.562,324.700 81.271 C 324.975 80.981,325.200 80.396,325.200 79.971 C 325.200 79.547,325.380 79.200,325.600 79.200 C 325.820 79.200,326.000 78.880,326.000 78.488 C 326.000 78.097,326.360 77.517,326.800 77.200 C 327.240 76.883,327.600 76.303,327.600 75.912 C 327.600 75.520,327.780 75.200,328.000 75.200 C 328.220 75.200,328.400 74.930,328.400 74.600 C 328.400 74.270,328.580 74.000,328.800 74.000 C 329.020 74.000,329.200 73.775,329.201 73.500 C 329.201 73.225,329.741 72.370,330.400 71.600 C 331.059 70.830,331.599 70.053,331.599 69.874 C 331.600 69.413,335.525 65.570,337.196 64.393 C 338.575 63.421,339.965 62.249,341.813 60.500 C 342.336 60.005,343.042 59.600,343.382 59.600 C 343.722 59.600,344.000 59.441,344.000 59.246 C 344.000 59.051,344.987 58.769,346.194 58.618 C 347.400 58.467,348.491 58.177,348.617 57.972 C 348.999 57.355,351.064 57.554,351.651 58.265 C 352.079 58.784,352.090 58.967,351.700 59.098 C 351.425 59.191,351.200 59.601,351.200 60.010 C 351.200 60.418,351.020 60.864,350.800 61.000 C 350.580 61.136,350.400 61.597,350.400 62.024 C 350.400 62.451,350.220 62.800,350.000 62.800 C 349.780 62.800,349.600 63.304,349.600 63.920 C 349.600 64.536,349.436 65.211,349.235 65.420 C 349.035 65.629,348.783 66.790,348.676 68.000 C 348.569 69.210,348.268 71.010,348.005 72.000 C 347.743 72.990,347.437 74.610,347.325 75.600 C 347.214 76.590,346.960 77.571,346.761 77.780 C 346.269 78.298,346.302 82.692,346.800 83.000 C 347.020 83.136,347.200 84.126,347.200 85.200 C 347.200 86.274,347.380 87.264,347.600 87.400 C 347.820 87.536,348.000 88.177,348.000 88.824 C 348.000 89.471,348.180 90.000,348.400 90.000 C 348.620 90.000,348.800 90.540,348.800 91.200 C 348.800 91.860,348.980 92.400,349.200 92.400 C 349.420 92.400,349.600 92.940,349.600 93.600 C 349.600 94.260,349.780 94.800,350.000 94.800 C 350.220 94.800,350.400 95.520,350.400 96.400 C 350.400 97.280,350.580 98.000,350.800 98.000 C 351.020 98.000,351.200 98.529,351.200 99.176 C 351.200 99.823,351.380 100.464,351.600 100.600 C 351.820 100.736,352.000 101.647,352.000 102.624 C 352.000 103.601,352.180 104.400,352.400 104.400 C 352.625 104.400,352.800 105.525,352.800 106.976 C 352.800 108.393,352.620 109.664,352.400 109.800 C 352.180 109.936,352.000 110.656,352.000 111.400 C 352.000 112.144,351.820 112.864,351.600 113.000 C 351.380 113.136,351.200 113.946,351.200 114.800 C 351.200 115.654,351.020 116.464,350.800 116.600 C 350.266 116.930,350.266 126.000,350.800 126.000 C 351.864 126.000,350.994 126.723,349.300 127.247 C 347.508 127.802,346.129 130.000,347.573 130.000 C 347.808 130.000,348.000 130.269,348.000 130.597 C 348.000 132.007,349.672 133.200,351.649 133.200 C 352.696 133.200,353.664 133.380,353.800 133.600 C 353.936 133.820,354.667 134.000,355.424 134.000 C 356.181 134.000,356.800 134.180,356.800 134.400 C 356.800 134.620,357.419 134.800,358.176 134.800 C 358.933 134.800,359.664 134.980,359.800 135.200 C 359.936 135.420,360.811 135.600,361.744 135.600 C 362.677 135.600,363.611 135.763,363.820 135.961 C 364.386 136.499,367.540 136.845,373.800 137.055 C 376.880 137.158,379.571 137.413,379.780 137.622 C 379.989 137.830,381.204 138.000,382.480 138.000 C 383.756 138.000,384.801 138.135,384.802 138.300 C 384.803 138.465,386.198 139.033,387.902 139.563 C 389.606 140.093,391.171 140.678,391.380 140.863 C 391.915 141.337,394.800 141.284,394.800 140.800 C 394.800 140.580,395.160 140.400,395.600 140.400 C 396.040 140.400,396.400 140.220,396.400 140.000 C 396.400 139.780,396.760 139.600,397.200 139.600 C 397.995 139.600,398.000 139.333,398.000 95.400 C 398.000 66.200,397.864 51.200,397.600 51.200 C 397.338 51.200,397.200 42.600,397.200 26.200 L 397.200 1.200 200.000 1.200 L 2.800 1.200 2.800 26.600 M217.972 171.258 C 218.757 171.510,220.480 172.120,221.800 172.615 L 224.200 173.513 224.316 176.757 C 224.444 180.319,223.987 180.862,222.226 179.239 C 221.134 178.233,218.527 176.800,217.788 176.800 C 217.465 176.800,217.200 176.643,217.200 176.451 C 217.200 176.083,213.836 175.518,211.800 175.544 C 209.746 175.570,207.200 176.067,207.200 176.442 C 207.200 176.639,206.939 176.800,206.620 176.800 C 205.689 176.800,202.609 180.057,201.892 181.800 C 199.234 188.265,200.224 196.650,204.069 200.244 C 208.573 204.454,215.420 204.436,221.713 200.198 C 224.232 198.502,224.469 198.703,224.319 202.403 L 224.200 205.328 222.400 205.964 C 221.410 206.314,220.540 206.735,220.467 206.900 C 220.393 207.065,219.819 207.200,219.190 207.200 C 218.562 207.200,217.936 207.380,217.800 207.600 C 217.654 207.836,215.270 208.000,212.000 208.000 C 208.730 208.000,206.346 207.836,206.200 207.600 C 206.064 207.380,205.608 207.200,205.187 207.200 C 202.203 207.200,197.655 202.563,195.577 197.400 C 194.321 194.280,194.327 184.836,195.586 181.800 C 196.896 178.644,197.561 177.606,199.550 175.612 C 201.552 173.605,202.903 172.750,206.400 171.276 C 207.758 170.703,216.200 170.690,217.972 171.258 M84.704 172.100 C 84.926 172.375,85.673 174.940,86.366 177.800 C 87.059 180.660,87.785 183.630,87.980 184.400 C 88.957 188.262,89.285 189.502,89.627 190.628 C 89.832 191.304,90.000 192.238,90.000 192.705 C 90.000 193.171,90.180 193.664,90.400 193.800 C 90.620 193.936,90.800 194.656,90.800 195.400 C 90.800 196.144,90.980 196.864,91.200 197.000 C 91.420 197.136,91.621 197.732,91.646 198.324 C 91.694 199.452,91.871 198.916,92.608 195.400 C 92.747 194.740,93.014 193.840,93.203 193.400 C 93.391 192.960,93.656 191.970,93.792 191.200 C 93.927 190.430,94.139 189.213,94.263 188.496 C 94.387 187.779,94.649 187.094,94.844 186.973 C 95.040 186.852,95.200 186.144,95.200 185.400 C 95.200 184.656,95.380 183.936,95.600 183.800 C 95.820 183.664,96.000 182.944,96.000 182.200 C 96.000 181.456,96.180 180.736,96.400 180.600 C 96.620 180.464,96.800 179.744,96.800 179.000 C 96.800 178.256,96.956 177.551,97.147 177.433 C 97.338 177.315,97.587 176.449,97.702 175.509 C 98.132 171.974,98.470 171.600,101.246 171.600 C 104.046 171.600,104.766 172.144,104.787 174.276 C 104.794 174.978,104.960 175.652,105.156 175.773 C 105.351 175.894,105.613 176.579,105.737 177.296 C 105.861 178.013,106.073 179.230,106.208 180.000 C 106.344 180.770,106.609 181.760,106.797 182.200 C 106.986 182.640,107.251 183.540,107.388 184.200 C 107.524 184.860,107.821 186.120,108.047 187.000 C 108.273 187.880,108.555 189.187,108.673 189.904 C 108.792 190.621,109.049 191.306,109.244 191.427 C 109.440 191.548,109.600 192.256,109.600 193.000 C 109.600 193.744,109.780 194.464,110.000 194.600 C 110.220 194.736,110.400 195.356,110.400 195.978 C 110.400 196.600,110.669 197.624,110.998 198.254 L 111.595 199.400 111.598 197.924 C 111.599 197.112,111.780 196.336,112.000 196.200 C 112.220 196.064,112.400 195.481,112.400 194.905 C 112.400 194.328,112.568 193.304,112.773 192.628 C 113.356 190.708,113.868 188.671,115.444 182.000 C 116.249 178.590,117.167 174.855,117.483 173.700 L 118.057 171.600 120.641 171.600 C 123.301 171.600,124.196 172.175,123.295 173.305 C 123.078 173.577,122.799 174.340,122.675 175.000 C 122.341 176.776,121.824 178.860,120.393 184.200 C 119.685 186.840,118.884 189.990,118.613 191.200 C 118.342 192.410,117.811 194.570,117.434 196.000 C 117.057 197.430,116.562 199.320,116.333 200.200 C 116.104 201.080,115.755 202.213,115.558 202.719 C 115.361 203.224,115.200 203.981,115.200 204.400 C 115.200 206.643,114.447 207.200,111.416 207.200 C 108.197 207.200,107.600 206.847,107.600 204.944 C 107.600 204.231,107.440 203.548,107.244 203.427 C 107.049 203.306,106.792 202.621,106.673 201.904 C 106.555 201.187,106.273 199.880,106.047 199.000 C 105.821 198.120,105.524 196.860,105.388 196.200 C 105.251 195.540,104.995 194.640,104.819 194.200 C 104.642 193.760,104.279 192.410,104.012 191.200 C 103.744 189.990,103.362 188.415,103.163 187.700 C 102.963 186.985,102.637 185.815,102.438 185.100 C 102.239 184.385,101.953 183.085,101.803 182.212 C 101.397 179.846,101.218 180.314,98.736 190.200 C 98.516 191.080,98.240 192.476,98.125 193.303 C 98.010 194.129,97.755 194.905,97.558 195.026 C 97.361 195.148,97.200 195.856,97.200 196.600 C 97.200 197.344,97.020 198.064,96.800 198.200 C 96.580 198.336,96.400 199.056,96.400 199.800 C 96.400 200.544,96.220 201.264,96.000 201.400 C 95.780 201.536,95.600 202.231,95.600 202.944 C 95.600 203.657,95.435 204.411,95.234 204.620 C 95.032 204.829,94.807 205.450,94.734 206.000 C 94.604 206.972,94.510 207.000,91.416 207.000 L 88.233 207.000 87.942 205.800 C 87.783 205.140,87.448 203.880,87.199 203.000 C 86.950 202.120,86.596 200.770,86.412 200.000 C 86.228 199.230,85.777 197.520,85.410 196.200 C 84.520 193.001,81.583 181.762,81.177 180.000 C 80.999 179.230,80.649 177.880,80.400 177.000 C 79.656 174.374,79.260 172.227,79.460 171.903 C 79.778 171.389,84.268 171.557,84.704 172.100 M135.108 179.900 C 135.168 184.355,135.365 188.000,135.547 188.000 C 135.879 188.000,143.662 179.874,148.439 174.540 L 151.000 171.680 154.033 171.640 C 157.574 171.593,157.855 171.749,156.752 173.154 C 156.128 173.948,144.199 186.525,142.596 188.079 C 142.335 188.333,144.842 191.494,147.752 194.579 C 148.386 195.250,150.395 197.510,152.218 199.600 C 154.041 201.690,156.163 204.115,156.935 204.988 C 158.750 207.043,158.589 207.200,154.670 207.200 L 151.386 207.200 147.993 203.360 C 146.127 201.248,143.589 198.413,142.353 197.060 C 141.117 195.707,139.650 194.063,139.093 193.406 L 138.080 192.212 136.640 193.784 L 135.200 195.356 135.200 201.278 L 135.200 207.200 132.400 207.200 L 129.600 207.200 129.600 189.382 L 129.600 171.563 132.300 171.682 L 135.000 171.800 135.108 179.900 M181.701 172.100 C 187.237 173.739,189.258 180.947,185.319 185.003 C 183.749 186.618,183.685 187.034,184.953 187.353 C 192.088 189.143,191.556 203.309,184.254 206.004 C 183.564 206.258,182.687 206.632,182.305 206.833 C 181.923 207.035,177.468 207.200,172.405 207.200 L 163.200 207.200 163.200 189.400 L 163.200 171.600 171.606 171.600 C 177.164 171.600,180.585 171.769,181.701 172.100 M246.249 172.300 C 246.372 172.685,246.618 173.360,246.796 173.800 C 246.974 174.240,247.336 175.230,247.600 176.000 C 247.864 176.770,248.234 177.760,248.420 178.200 C 248.607 178.640,249.028 179.810,249.356 180.800 C 249.683 181.790,250.606 184.400,251.405 186.600 C 252.204 188.800,253.124 191.410,253.449 192.400 C 253.774 193.390,254.194 194.560,254.381 195.000 C 254.569 195.440,255.114 196.880,255.593 198.200 C 256.072 199.520,256.630 200.913,256.832 201.295 C 257.034 201.677,257.200 202.264,257.200 202.600 C 257.200 202.936,257.380 203.568,257.600 204.005 C 257.820 204.442,258.180 205.158,258.400 205.595 C 259.127 207.038,258.871 207.200,255.868 207.200 C 252.440 207.200,252.759 207.569,250.768 201.291 L 249.465 197.182 242.246 197.291 L 235.028 197.400 233.603 201.600 C 231.593 207.524,231.820 207.264,228.772 207.121 C 226.153 206.998,225.437 206.073,226.835 204.620 C 227.036 204.411,227.200 203.914,227.200 203.515 C 227.200 203.116,227.359 202.477,227.553 202.095 C 228.029 201.160,228.618 199.693,229.200 198.000 C 229.658 196.667,229.934 195.944,230.767 193.900 C 230.968 193.405,231.223 192.640,231.334 192.200 C 231.444 191.760,232.161 189.690,232.928 187.600 C 233.695 185.510,234.636 182.900,235.020 181.800 C 235.404 180.700,235.895 179.350,236.112 178.800 C 236.817 177.015,237.111 176.224,237.600 174.800 C 238.737 171.489,238.568 171.600,242.480 171.600 C 245.504 171.600,246.058 171.703,246.249 172.300 M168.400 180.763 L 168.400 185.600 171.780 185.600 C 178.168 185.600,180.962 184.456,181.291 181.706 C 181.805 177.407,180.441 176.561,172.300 176.131 L 168.400 175.925 168.400 180.763 M242.198 178.311 C 241.977 178.470,241.560 179.320,241.271 180.200 C 240.714 181.902,240.130 183.361,239.553 184.495 C 239.359 184.877,239.200 185.464,239.200 185.800 C 239.200 186.136,239.041 186.723,238.847 187.105 C 238.652 187.487,238.315 188.250,238.096 188.800 C 237.878 189.350,237.497 190.303,237.250 190.919 C 236.501 192.783,236.546 192.800,242.200 192.800 C 245.170 192.800,247.597 192.665,247.594 192.500 C 247.584 191.984,246.562 189.229,246.274 188.941 C 246.123 188.790,246.000 188.334,246.000 187.928 C 246.000 187.522,245.820 186.832,245.600 186.395 C 245.380 185.958,245.020 185.242,244.800 184.805 C 244.580 184.368,244.400 183.736,244.400 183.400 C 244.400 183.064,244.241 182.477,244.047 182.095 C 243.392 180.807,242.842 179.404,242.721 178.711 C 242.654 178.331,242.419 178.151,242.198 178.311 M168.700 190.228 C 168.535 190.396,168.400 193.293,168.400 196.667 L 168.400 202.800 171.823 202.800 C 176.332 202.800,180.723 202.067,182.145 201.078 C 185.004 199.089,185.123 193.076,182.334 191.555 C 180.544 190.579,169.420 189.496,168.700 190.228 M103.767 231.843 C 104.311 232.051,104.400 233.068,104.400 239.043 L 104.400 246.000 112.600 246.000 L 120.800 246.000 120.800 239.047 C 120.800 231.195,120.610 231.610,124.200 231.612 C 126.976 231.613,126.819 230.474,126.704 249.826 L 126.600 267.400 124.627 267.525 C 123.541 267.594,122.236 267.545,121.727 267.417 L 120.800 267.185 120.800 258.792 L 120.800 250.400 112.608 250.400 L 104.416 250.400 104.308 258.900 L 104.200 267.400 101.837 267.522 C 100.218 267.605,99.370 267.480,99.143 267.122 C 98.585 266.242,98.716 232.644,99.280 232.080 C 99.782 231.578,102.678 231.425,103.767 231.843 M150.200 240.000 C 150.336 240.220,150.796 240.400,151.223 240.400 C 153.159 240.400,157.308 245.731,158.227 249.400 C 158.875 251.991,158.364 260.400,157.558 260.400 C 157.361 260.400,157.200 260.683,157.200 261.028 C 157.200 262.790,153.752 266.420,150.929 267.631 C 140.095 272.275,129.996 260.757,134.037 248.366 C 135.333 244.390,138.802 240.400,140.962 240.400 C 141.313 240.400,141.600 240.220,141.600 240.000 C 141.600 239.759,143.259 239.600,145.776 239.600 C 148.129 239.600,150.061 239.775,150.200 240.000 M182.000 240.000 C 182.000 240.220,182.264 240.400,182.587 240.400 C 182.909 240.400,183.803 241.030,184.573 241.800 C 186.184 243.411,186.145 243.398,186.956 242.587 C 189.853 239.689,197.313 238.501,200.138 240.487 C 203.886 243.121,204.000 243.596,204.000 256.584 L 204.000 267.600 201.880 267.600 C 198.717 267.600,198.800 267.878,198.800 257.307 C 198.800 247.460,198.496 245.465,196.918 244.958 C 196.523 244.831,195.797 244.534,195.303 244.298 C 194.654 243.987,194.125 243.997,193.385 244.334 C 192.822 244.590,192.099 244.800,191.777 244.800 C 191.454 244.800,190.338 245.364,189.295 246.054 L 187.400 247.308 187.535 256.976 C 187.691 268.070,187.797 267.720,184.332 267.522 L 182.200 267.400 181.947 257.600 C 181.701 248.041,181.506 246.234,180.628 245.388 C 179.725 244.518,176.956 243.888,176.084 244.355 C 175.627 244.600,174.881 244.800,174.426 244.800 C 173.972 244.800,173.600 244.980,173.600 245.200 C 173.600 245.420,173.403 245.600,173.162 245.600 C 172.921 245.600,172.201 245.972,171.562 246.427 L 170.400 247.254 170.400 257.220 L 170.400 267.185 169.468 267.419 C 168.955 267.547,167.740 267.596,166.768 267.526 L 165.000 267.400 164.895 253.900 L 164.789 240.400 167.432 240.400 C 169.738 240.400,170.102 240.502,170.284 241.200 C 170.541 242.183,170.968 242.203,172.340 241.300 C 172.925 240.915,173.763 240.386,174.202 240.124 C 175.183 239.538,182.000 239.430,182.000 240.000 M228.596 240.440 C 232.520 242.285,234.478 245.563,234.724 250.700 L 234.882 254.000 225.308 254.000 C 214.340 254.000,215.159 253.772,215.825 256.635 C 216.577 259.871,218.043 261.852,220.400 262.817 C 222.045 263.491,228.255 263.505,228.923 262.837 C 229.164 262.596,229.639 262.396,229.980 262.391 C 230.321 262.386,231.050 262.030,231.600 261.600 C 233.646 259.999,234.400 260.471,234.400 263.351 C 234.400 266.331,234.364 266.371,230.589 267.534 C 221.088 270.461,213.802 267.403,210.451 259.081 C 209.891 257.692,209.850 249.740,210.400 249.400 C 210.620 249.264,210.800 248.820,210.800 248.414 C 210.800 242.374,222.017 237.348,228.596 240.440 M145.200 244.398 C 144.870 244.612,144.177 244.791,143.660 244.794 C 139.163 244.823,137.249 257.093,141.065 261.437 C 143.206 263.875,148.225 264.051,150.655 261.773 C 152.474 260.068,153.852 250.297,152.400 249.400 C 152.180 249.264,152.000 248.809,152.000 248.390 C 152.000 247.321,149.504 244.941,148.138 244.707 C 147.512 244.601,146.730 244.400,146.400 244.261 C 146.070 244.122,145.530 244.184,145.200 244.398 M221.000 244.559 C 218.024 245.406,216.440 246.864,215.851 249.300 L 215.585 250.400 222.592 250.400 C 230.308 250.400,230.095 250.483,229.009 247.882 C 228.246 246.056,224.180 243.567,222.754 244.052 C 222.669 244.081,221.880 244.309,221.000 244.559 " stroke="none" fill="#0c3464" fill-rule="evenodd"></path><path id="path2" d="M206.846 171.163 C 206.507 171.378,207.051 171.432,208.246 171.304 C 209.321 171.188,210.275 171.028,210.367 170.947 C 210.729 170.628,207.365 170.835,206.846 171.163 M213.800 170.998 C 214.818 171.343,218.062 171.485,217.554 171.163 C 217.249 170.970,216.190 170.824,215.200 170.838 C 214.210 170.852,213.580 170.924,213.800 170.998 M122.714 171.938 C 123.020 172.132,123.117 172.574,122.955 173.032 C 122.738 173.642,122.788 173.703,123.194 173.327 C 123.791 172.776,123.461 171.597,122.713 171.606 C 122.297 171.611,122.297 171.674,122.714 171.938 M134.390 171.863 C 134.650 171.993,134.800 175.118,134.800 180.433 C 134.800 189.875,134.671 189.596,137.614 186.500 L 139.800 184.200 137.786 186.100 C 136.679 187.145,135.647 188.000,135.495 188.000 C 135.342 188.000,135.168 184.370,135.108 179.933 C 135.026 173.785,134.879 171.842,134.490 171.763 C 134.210 171.706,134.165 171.751,134.390 171.863 M177.400 171.798 C 178.418 172.143,181.662 172.285,181.154 171.963 C 180.849 171.770,179.790 171.624,178.800 171.638 C 177.810 171.652,177.180 171.724,177.400 171.798 M117.646 172.867 C 117.621 173.234,117.496 173.864,117.370 174.267 C 117.152 174.962,117.163 174.963,117.597 174.287 C 117.848 173.896,117.973 173.266,117.873 172.887 C 117.711 172.268,117.688 172.266,117.646 172.867 M148.410 174.590 C 147.220 175.795,146.326 176.836,146.423 176.905 C 146.521 176.973,147.574 175.988,148.763 174.715 C 151.506 171.781,151.267 171.697,148.410 174.590 M152.991 176.843 C 151.236 178.626,150.160 179.850,150.600 179.563 C 151.437 179.016,156.668 173.600,156.359 173.600 C 156.261 173.600,154.745 175.059,152.991 176.843 M246.772 174.646 C 247.275 176.319,247.946 177.865,247.969 177.400 C 247.994 176.865,247.017 174.083,246.686 173.753 C 246.542 173.609,246.581 174.011,246.772 174.646 M116.854 175.867 C 116.825 176.344,116.696 177.064,116.570 177.467 C 116.352 178.161,116.364 178.162,116.796 177.488 C 117.047 177.097,117.175 176.377,117.081 175.888 C 116.909 175.001,116.909 175.001,116.854 175.867 M209.200 175.600 C 208.376 175.864,208.341 175.926,209.000 175.954 C 209.440 175.973,210.070 175.813,210.400 175.600 C 211.101 175.147,210.614 175.147,209.200 175.600 M213.400 175.600 C 213.840 175.789,214.560 175.938,215.000 175.932 C 215.643 175.923,215.604 175.857,214.800 175.600 C 213.432 175.162,212.381 175.162,213.400 175.600 M168.154 180.800 C 168.154 183.550,168.218 184.675,168.296 183.300 C 168.374 181.925,168.374 179.675,168.296 178.300 C 168.218 176.925,168.154 178.050,168.154 180.800 M176.200 176.400 C 176.640 176.589,177.450 176.738,178.000 176.732 L 179.000 176.720 178.000 176.400 C 177.450 176.224,176.640 176.074,176.200 176.068 L 175.400 176.056 176.200 176.400 M236.551 177.500 C 236.428 177.885,236.143 178.587,235.917 179.061 C 235.692 179.534,235.604 180.164,235.722 180.461 C 235.846 180.771,235.950 180.628,235.968 180.124 C 235.986 179.642,236.159 179.149,236.352 179.030 C 236.546 178.910,236.791 178.359,236.897 177.806 C 237.116 176.656,236.886 176.452,236.551 177.500 M186.987 179.600 C 186.987 181.793,187.037 181.968,187.351 180.871 C 187.571 180.106,187.571 179.094,187.351 178.329 C 187.037 177.232,186.987 177.407,186.987 179.600 M144.575 178.900 L 143.400 180.200 144.700 179.025 C 145.415 178.379,146.000 177.794,146.000 177.725 C 146.000 177.416,145.670 177.688,144.575 178.900 M248.372 179.046 C 248.875 180.719,249.546 182.265,249.569 181.800 C 249.594 181.265,248.617 178.483,248.286 178.153 C 248.142 178.009,248.181 178.411,248.372 179.046 M222.162 179.100 C 222.581 179.595,223.301 179.979,223.762 179.954 C 224.568 179.909,224.569 179.900,223.800 179.712 C 223.360 179.605,222.640 179.221,222.200 178.859 C 221.407 178.205,221.406 178.207,222.162 179.100 M181.309 180.400 C 181.309 181.810,181.381 182.004,181.642 181.299 C 181.825 180.805,181.825 179.995,181.642 179.501 C 181.381 178.796,181.309 178.990,181.309 180.400 M100.806 180.700 C 100.811 181.557,100.898 181.668,101.200 181.200 C 101.706 180.417,101.706 179.600,101.200 179.600 C 100.980 179.600,100.803 180.095,100.806 180.700 M145.391 184.900 L 142.200 188.200 145.500 185.009 C 147.315 183.255,148.800 181.770,148.800 181.709 C 148.800 181.418,148.354 181.835,145.391 184.900 M100.249 182.615 C 100.112 182.973,100.018 183.656,100.041 184.133 C 100.067 184.681,100.203 184.486,100.410 183.603 C 100.760 182.116,100.665 181.533,100.249 182.615 M102.006 183.233 C 102.009 183.765,102.189 184.470,102.406 184.800 C 102.682 185.222,102.723 184.985,102.542 184.000 C 102.225 182.275,101.998 181.949,102.006 183.233 M185.996 183.697 C 184.826 185.456,184.736 185.782,185.746 184.600 C 186.637 183.557,187.037 182.800,186.696 182.800 C 186.639 182.800,186.324 183.204,185.996 183.697 M250.016 183.454 C 250.007 183.704,250.263 184.514,250.584 185.254 C 250.906 185.994,251.176 186.396,251.184 186.146 C 251.193 185.896,250.937 185.086,250.616 184.346 C 250.294 183.606,250.024 183.204,250.016 183.454 M233.691 185.300 C 233.010 187.184,233.104 187.694,233.826 186.030 C 234.153 185.277,234.366 184.499,234.301 184.302 C 234.235 184.105,233.960 184.554,233.691 185.300 M194.649 185.415 C 194.512 185.773,194.421 186.546,194.446 187.133 C 194.480 187.932,194.570 187.798,194.804 186.600 C 195.135 184.900,195.062 184.340,194.649 185.415 M200.252 185.700 C 199.912 186.971,199.953 192.907,200.306 193.460 C 200.468 193.713,200.600 191.868,200.600 189.360 C 200.600 184.380,200.602 184.396,200.252 185.700 M99.449 185.815 C 99.312 186.173,99.218 186.856,99.241 187.333 C 99.267 187.881,99.403 187.686,99.610 186.803 C 99.960 185.316,99.865 184.733,99.449 185.815 M102.984 186.600 C 103.072 187.260,103.332 188.430,103.561 189.200 C 103.932 190.446,103.960 190.468,103.816 189.400 C 103.728 188.740,103.468 187.570,103.239 186.800 C 102.868 185.554,102.840 185.532,102.984 186.600 M170.300 185.893 C 171.235 185.977,172.765 185.977,173.700 185.893 C 174.635 185.809,173.870 185.740,172.000 185.740 C 170.130 185.740,169.365 185.809,170.300 185.893 M83.044 187.400 C 83.373 188.871,83.602 189.190,83.594 188.167 C 83.591 187.745,83.405 187.130,83.182 186.800 C 82.885 186.362,82.848 186.524,83.044 187.400 M185.200 187.800 C 185.750 188.114,186.380 188.372,186.600 188.372 C 186.820 188.372,186.550 188.114,186.000 187.800 C 185.450 187.486,184.820 187.228,184.600 187.228 C 184.380 187.228,184.650 187.486,185.200 187.800 M143.936 190.717 C 144.891 191.861,145.881 192.925,146.136 193.080 C 146.391 193.236,145.819 192.427,144.864 191.283 C 143.909 190.139,142.919 189.075,142.664 188.920 C 142.409 188.764,142.981 189.573,143.936 190.717 M83.858 190.400 C 84.175 192.125,84.402 192.451,84.394 191.167 C 84.391 190.635,84.211 189.930,83.994 189.600 C 83.718 189.178,83.677 189.415,83.858 190.400 M168.176 190.518 C 168.067 190.802,168.028 193.727,168.090 197.018 L 168.203 203.000 168.402 196.499 C 168.597 190.109,168.573 189.484,168.176 190.518 M177.200 190.400 C 177.750 190.576,178.740 190.717,179.400 190.713 L 180.600 190.705 179.400 190.400 C 178.740 190.232,177.750 190.091,177.200 190.087 L 176.200 190.080 177.200 190.400 M104.269 192.250 C 104.398 193.103,104.639 193.949,104.804 194.132 C 104.969 194.315,104.969 193.723,104.803 192.816 C 104.415 190.693,103.960 190.211,104.269 192.250 M194.406 192.033 C 194.409 192.785,194.577 193.661,194.779 193.979 C 195.016 194.354,195.065 193.930,194.918 192.779 C 194.635 190.570,194.398 190.225,194.406 192.033 M108.828 191.476 C 108.918 192.515,109.544 193.396,109.572 192.524 C 109.587 192.042,109.420 191.536,109.200 191.400 C 108.980 191.264,108.813 191.298,108.828 191.476 M136.800 193.000 C 136.283 193.550,136.006 194.000,136.183 194.000 C 136.361 194.000,136.858 193.595,137.287 193.100 L 138.068 192.200 139.089 193.400 C 141.044 195.700,143.218 198.000,143.436 198.000 C 143.557 198.000,142.443 196.650,140.961 195.000 C 137.896 191.589,138.054 191.665,136.800 193.000 M84.644 193.400 C 84.973 194.871,85.202 195.190,85.194 194.167 C 85.191 193.745,85.005 193.130,84.782 192.800 C 84.485 192.362,84.448 192.524,84.644 193.400 M97.568 193.700 C 97.449 194.560,97.510 195.050,97.712 194.848 C 97.905 194.655,97.998 193.981,97.919 193.349 C 97.787 192.291,97.759 192.319,97.568 193.700 M117.449 194.215 C 117.312 194.573,117.215 195.166,117.234 195.533 C 117.253 195.900,117.427 195.669,117.621 195.020 C 117.998 193.758,117.865 193.133,117.449 194.215 M147.617 194.717 C 147.627 194.873,148.842 196.266,150.317 197.814 C 153.149 200.784,152.667 200.032,149.485 196.517 C 148.448 195.372,147.608 194.562,147.617 194.717 M105.206 195.633 C 105.209 196.165,105.389 196.870,105.606 197.200 C 105.882 197.622,105.923 197.385,105.742 196.400 C 105.425 194.675,105.198 194.349,105.206 195.633 M96.768 196.900 C 96.649 197.760,96.710 198.250,96.912 198.048 C 97.105 197.855,97.198 197.181,97.119 196.549 C 96.987 195.491,96.959 195.519,96.768 196.900 M134.721 201.401 C 134.654 204.591,134.735 207.201,134.900 207.201 C 135.065 207.200,135.200 204.590,135.200 201.400 C 135.200 193.897,134.876 193.897,134.721 201.401 M110.400 197.900 C 110.400 198.091,110.661 198.596,110.980 199.024 C 111.540 199.773,111.552 199.768,111.332 198.894 C 111.104 197.991,110.400 197.240,110.400 197.900 M116.263 198.700 C 115.879 200.596,115.577 202.663,115.752 202.200 C 116.391 200.506,116.866 198.400,116.712 197.946 C 116.610 197.646,116.408 197.985,116.263 198.700 M106.006 198.833 C 106.009 199.365,106.189 200.070,106.406 200.400 C 106.682 200.822,106.723 200.585,106.542 199.600 C 106.225 197.875,105.998 197.549,106.006 198.833 M184.032 198.553 C 184.014 198.967,183.325 199.954,182.500 200.747 C 181.622 201.591,181.409 201.926,181.987 201.555 C 183.336 200.687,184.540 198.998,184.279 198.341 C 184.138 197.989,184.052 198.062,184.032 198.553 M95.968 200.100 C 95.849 200.960,95.910 201.450,96.112 201.248 C 96.305 201.055,96.398 200.381,96.319 199.749 C 96.187 198.691,96.159 198.719,95.968 200.100 M203.600 200.200 C 204.346 200.970,205.047 201.600,205.157 201.600 C 205.267 201.600,204.746 200.970,204.000 200.200 C 203.254 199.430,202.553 198.800,202.443 198.800 C 202.333 198.800,202.854 199.430,203.600 200.200 M86.584 200.200 C 86.672 200.860,86.932 202.030,87.161 202.800 C 87.532 204.046,87.560 204.068,87.416 203.000 C 87.328 202.340,87.068 201.170,86.839 200.400 C 86.468 199.154,86.440 199.132,86.584 200.200 M145.925 201.100 C 146.805 202.145,148.116 203.540,148.838 204.200 C 149.560 204.860,148.917 204.005,147.408 202.300 C 144.401 198.902,143.375 198.071,145.925 201.100 M198.406 202.611 C 199.537 204.018,201.619 205.813,201.559 205.330 C 201.537 205.149,200.599 204.190,199.476 203.200 C 198.004 201.903,197.705 201.739,198.406 202.611 M154.000 202.125 C 154.000 202.194,154.585 202.779,155.300 203.425 L 156.600 204.600 155.425 203.300 C 154.330 202.088,154.000 201.816,154.000 202.125 M95.246 203.067 C 95.221 203.324,95.084 203.864,94.941 204.267 C 94.740 204.836,94.794 204.897,95.179 204.542 C 95.452 204.291,95.589 203.751,95.484 203.342 C 95.379 202.934,95.272 202.810,95.246 203.067 M170.512 203.095 C 171.564 203.177,173.184 203.176,174.112 203.092 C 175.040 203.008,174.180 202.941,172.200 202.942 C 170.220 202.943,169.460 203.012,170.512 203.095 M207.633 202.947 C 207.725 203.028,208.520 203.204,209.400 203.338 C 210.515 203.507,210.758 203.471,210.200 203.219 C 209.432 202.871,207.290 202.644,207.633 202.947 M114.854 204.267 C 114.825 204.744,114.696 205.464,114.570 205.867 C 114.352 206.561,114.364 206.562,114.796 205.888 C 115.047 205.497,115.175 204.777,115.081 204.288 C 114.909 203.401,114.909 203.401,114.854 204.267 M185.218 205.050 C 183.207 206.477,183.169 206.653,185.100 205.589 C 186.035 205.074,186.800 204.506,186.800 204.326 C 186.800 203.913,186.854 203.888,185.218 205.050 M107.646 205.451 C 107.621 205.919,107.915 206.549,108.300 206.851 C 108.909 207.328,108.940 207.322,108.543 206.800 C 108.292 206.470,107.998 205.840,107.889 205.400 C 107.703 204.640,107.690 204.643,107.646 205.451 M157.134 205.730 C 157.614 206.241,157.871 206.810,157.704 206.994 C 157.537 207.178,157.625 207.199,157.901 207.040 C 158.443 206.728,157.364 204.838,156.630 204.813 C 156.427 204.806,156.654 205.218,157.134 205.730 M100.500 231.887 C 101.105 231.978,102.095 231.978,102.700 231.887 C 103.305 231.795,102.810 231.720,101.600 231.720 C 100.390 231.720,99.895 231.795,100.500 231.887 M122.900 231.887 C 123.505 231.978,124.495 231.978,125.100 231.887 C 125.705 231.795,125.210 231.720,124.000 231.720 C 122.790 231.720,122.295 231.795,122.900 231.887 M104.165 239.000 C 104.166 242.960,104.226 244.526,104.298 242.480 C 104.371 240.434,104.371 237.194,104.298 235.280 C 104.224 233.366,104.165 235.040,104.165 239.000 M120.965 239.000 C 120.966 242.960,121.026 244.526,121.098 242.480 C 121.171 240.434,121.171 237.194,121.098 235.280 C 121.024 233.366,120.965 235.040,120.965 239.000 M126.496 249.481 L 126.400 267.162 123.900 267.304 L 121.400 267.446 123.913 267.523 C 127.108 267.621,126.827 269.472,126.700 249.200 L 126.591 231.800 126.496 249.481 M98.984 249.600 C 98.984 259.170,99.036 263.085,99.100 258.300 C 99.163 253.515,99.163 245.685,99.100 240.900 C 99.036 236.115,98.984 240.030,98.984 249.600 M141.600 239.945 C 141.600 240.134,142.050 240.203,142.600 240.098 C 143.150 239.993,143.600 239.838,143.600 239.753 C 143.600 239.669,143.150 239.600,142.600 239.600 C 142.050 239.600,141.600 239.755,141.600 239.945 M198.200 240.000 C 199.301 240.473,199.692 240.473,199.400 240.000 C 199.264 239.780,198.758 239.613,198.276 239.628 C 197.431 239.655,197.429 239.669,198.200 240.000 M225.633 239.744 C 225.725 239.823,226.340 240.008,227.000 240.156 C 227.876 240.352,228.038 240.315,227.600 240.018 C 227.060 239.653,225.232 239.398,225.633 239.744 M139.200 241.236 C 138.536 241.779,138.469 241.915,139.000 241.640 C 140.305 240.966,141.028 240.412,140.600 240.415 C 140.380 240.417,139.750 240.786,139.200 241.236 M170.055 241.586 C 170.306 242.306,170.657 242.688,170.919 242.526 C 171.232 242.333,171.221 242.207,170.880 242.093 C 170.616 242.005,170.400 241.689,170.400 241.390 C 170.400 241.092,170.227 240.740,170.016 240.610 C 169.788 240.469,169.804 240.867,170.055 241.586 M154.000 242.600 C 154.746 243.370,155.447 244.000,155.557 244.000 C 155.667 244.000,155.146 243.370,154.400 242.600 C 153.654 241.830,152.953 241.200,152.843 241.200 C 152.733 241.200,153.254 241.830,154.000 242.600 M187.829 241.809 C 187.405 242.129,187.135 242.468,187.229 242.561 C 187.323 242.655,187.825 242.387,188.344 241.966 C 189.438 241.079,188.979 240.939,187.829 241.809 M213.578 243.500 L 212.200 245.000 213.700 243.622 C 215.096 242.338,215.384 242.000,215.078 242.000 C 215.012 242.000,214.337 242.675,213.578 243.500 M231.200 242.212 C 231.200 242.362,231.650 243.019,232.200 243.673 C 232.750 244.327,233.200 244.739,233.200 244.588 C 233.200 244.438,232.750 243.781,232.200 243.127 C 231.650 242.473,231.200 242.061,231.200 242.212 M135.692 244.700 C 134.754 246.054,134.259 247.334,134.805 246.997 C 135.022 246.863,135.200 246.566,135.200 246.338 C 135.200 246.110,135.572 245.401,136.027 244.762 C 136.482 244.123,136.764 243.600,136.654 243.600 C 136.544 243.600,136.112 244.095,135.692 244.700 M143.800 244.400 L 143.000 244.744 143.800 244.766 C 144.240 244.778,144.870 244.613,145.200 244.400 C 145.995 243.886,144.996 243.886,143.800 244.400 M146.800 244.400 C 147.130 244.613,147.760 244.778,148.200 244.766 L 149.000 244.744 148.200 244.400 C 147.004 243.886,146.005 243.886,146.800 244.400 M220.600 244.400 C 220.096 244.617,220.022 244.744,220.400 244.744 C 220.730 244.744,221.360 244.589,221.800 244.400 C 222.304 244.183,222.378 244.056,222.000 244.056 C 221.670 244.056,221.040 244.211,220.600 244.400 M224.200 244.400 C 224.640 244.589,225.270 244.744,225.600 244.744 C 225.978 244.744,225.904 244.617,225.400 244.400 C 224.960 244.211,224.330 244.056,224.000 244.056 C 223.622 244.056,223.696 244.183,224.200 244.400 M226.400 244.925 C 226.400 244.993,226.985 245.472,227.700 245.988 L 229.000 246.927 228.030 245.863 C 227.202 244.955,226.400 244.493,226.400 244.925 M140.800 246.200 C 140.283 246.750,139.974 247.200,140.112 247.200 C 140.250 247.200,140.814 246.750,141.364 246.200 C 141.914 245.650,142.223 245.200,142.052 245.200 C 141.880 245.200,141.317 245.650,140.800 246.200 M233.667 246.420 C 233.901 247.092,234.167 247.567,234.257 247.476 C 234.456 247.278,233.701 245.200,233.431 245.200 C 233.327 245.200,233.433 245.749,233.667 246.420 M171.054 246.429 L 170.000 247.258 170.093 257.329 L 170.185 267.400 170.292 257.400 L 170.398 247.400 171.499 246.502 C 172.884 245.372,172.481 245.306,171.054 246.429 M188.231 246.376 L 187.062 247.146 187.031 257.073 L 187.000 267.000 184.600 267.233 L 182.200 267.466 184.451 267.533 C 187.782 267.632,187.696 267.934,187.537 256.814 C 187.462 251.526,187.490 247.196,187.600 247.191 C 187.875 247.179,189.850 245.619,189.600 245.612 C 189.490 245.608,188.874 245.952,188.231 246.376 M181.482 248.021 C 181.608 248.999,181.775 249.875,181.855 249.967 C 182.181 250.342,181.960 247.355,181.621 246.821 C 181.384 246.446,181.335 246.870,181.482 248.021 M216.079 247.705 C 215.849 247.982,215.602 248.747,215.530 249.405 L 215.400 250.600 222.400 250.614 L 229.400 250.628 222.495 250.505 L 215.589 250.381 215.850 249.291 C 215.993 248.691,216.288 247.975,216.504 247.700 C 217.020 247.044,216.623 247.049,216.079 247.705 M198.973 257.400 C 198.973 262.680,199.030 264.785,199.099 262.077 C 199.168 259.369,199.168 255.049,199.099 252.477 C 199.029 249.905,198.972 252.120,198.973 257.400 M234.537 251.000 C 234.539 252.760,234.609 253.430,234.693 252.489 C 234.778 251.549,234.777 250.109,234.691 249.289 C 234.605 248.470,234.536 249.240,234.537 251.000 M104.275 250.259 C 104.124 250.410,104.000 254.275,104.000 258.848 L 104.000 267.162 101.700 267.309 L 99.400 267.457 101.800 267.429 L 104.200 267.400 104.308 258.900 L 104.416 250.400 112.600 250.400 L 120.784 250.400 120.904 258.700 L 121.024 267.000 121.012 258.600 L 121.000 250.200 112.775 250.092 C 108.251 250.033,104.426 250.108,104.275 250.259 M152.946 253.800 C 152.947 256.000,153.014 256.849,153.095 255.687 C 153.176 254.524,153.176 252.724,153.093 251.687 C 153.011 250.649,152.945 251.600,152.946 253.800 M158.200 253.800 C 158.200 255.848,158.332 257.316,158.494 257.062 C 158.656 256.808,158.788 255.340,158.788 253.800 C 158.788 252.260,158.656 250.792,158.494 250.538 C 158.332 250.284,158.200 251.752,158.200 253.800 M133.344 254.000 C 133.344 256.090,133.412 256.945,133.494 255.900 C 133.576 254.855,133.576 253.145,133.494 252.100 C 133.412 251.055,133.344 251.910,133.344 254.000 M138.680 252.500 C 138.554 253.435,138.592 254.830,138.765 255.600 C 139.014 256.716,139.085 256.371,139.111 253.900 C 139.149 250.418,139.018 249.991,138.680 252.500 M215.465 256.400 C 215.709 258.327,216.086 259.242,217.260 260.754 C 218.277 262.065,218.199 261.436,217.171 260.046 C 216.715 259.429,216.093 257.952,215.789 256.762 C 215.255 254.669,215.244 254.657,215.465 256.400 M210.006 257.433 C 210.009 257.855,210.195 258.470,210.418 258.800 C 210.715 259.238,210.752 259.076,210.556 258.200 C 210.227 256.729,209.998 256.410,210.006 257.433 M133.844 259.000 C 134.173 260.471,134.402 260.790,134.394 259.767 C 134.391 259.345,134.205 258.730,133.982 258.400 C 133.685 257.962,133.648 258.124,133.844 259.000 M233.938 262.609 C 234.128 265.001,233.748 266.393,232.892 266.432 C 232.453 266.452,232.388 266.539,232.713 266.669 C 233.812 267.111,234.400 265.954,234.400 263.351 C 234.400 261.948,234.264 260.800,234.097 260.800 C 233.931 260.800,233.859 261.614,233.938 262.609 M135.204 262.509 C 135.197 262.997,138.461 266.407,139.375 266.867 C 139.829 267.096,139.533 266.718,138.717 266.027 C 137.902 265.336,136.779 264.192,136.222 263.485 C 135.665 262.778,135.207 262.339,135.204 262.509 M144.200 263.628 C 145.247 264.041,146.875 264.067,147.483 263.681 C 147.749 263.512,146.939 263.360,145.683 263.343 C 144.187 263.324,143.676 263.422,144.200 263.628 M213.488 264.423 C 214.196 265.188,215.366 266.133,216.088 266.524 C 217.354 267.210,217.365 267.209,216.404 266.517 C 215.856 266.123,214.686 265.178,213.804 264.417 L 212.200 263.034 213.488 264.423 M222.698 263.741 C 223.493 263.970,224.655 263.972,225.698 263.747 C 227.285 263.405,227.198 263.380,224.400 263.374 C 221.888 263.368,221.611 263.428,222.698 263.741 M151.300 267.034 C 150.585 267.346,150.000 267.694,150.000 267.807 C 150.000 268.015,152.806 266.927,153.146 266.587 C 153.486 266.247,152.620 266.457,151.300 267.034 M165.161 267.323 C 165.340 267.500,166.456 267.588,167.643 267.517 L 169.800 267.389 167.318 267.194 C 165.954 267.087,164.983 267.145,165.161 267.323 M200.707 267.490 C 201.426 267.579,202.506 267.577,203.107 267.486 C 203.708 267.395,203.120 267.322,201.800 267.324 C 200.480 267.326,199.988 267.401,200.707 267.490 M229.200 267.618 C 228.762 267.915,228.924 267.952,229.800 267.756 C 231.271 267.427,231.590 267.198,230.567 267.206 C 230.145 267.209,229.530 267.395,229.200 267.618 M144.100 268.294 C 145.145 268.376,146.855 268.376,147.900 268.294 C 148.945 268.212,148.090 268.144,146.000 268.144 C 143.910 268.144,143.055 268.212,144.100 268.294 M222.115 268.296 C 223.388 268.376,225.368 268.375,226.515 268.294 C 227.662 268.214,226.620 268.149,224.200 268.150 C 221.780 268.151,220.842 268.216,222.115 268.296 " stroke="none" fill="#6b768a" fill-rule="evenodd"></path><path id="path3" d="M211.100 171.082 C 211.595 171.178,212.405 171.178,212.900 171.082 C 213.395 170.987,212.990 170.909,212.000 170.909 C 211.010 170.909,210.605 170.987,211.100 171.082 M80.900 171.887 C 81.505 171.978,82.495 171.978,83.100 171.887 C 83.705 171.795,83.210 171.720,82.000 171.720 C 80.790 171.720,80.295 171.795,80.900 171.887 M100.500 171.887 C 101.105 171.978,102.095 171.978,102.700 171.887 C 103.305 171.795,102.810 171.720,101.600 171.720 C 100.390 171.720,99.895 171.795,100.500 171.887 M119.900 171.882 C 120.395 171.978,121.205 171.978,121.700 171.882 C 122.195 171.787,121.790 171.709,120.800 171.709 C 119.810 171.709,119.405 171.787,119.900 171.882 M131.305 171.887 C 131.914 171.979,132.814 171.977,133.305 171.882 C 133.797 171.787,133.300 171.711,132.200 171.714 C 131.100 171.717,130.697 171.795,131.305 171.887 M153.107 171.890 C 153.826 171.979,154.906 171.977,155.507 171.886 C 156.108 171.795,155.520 171.722,154.200 171.724 C 152.880 171.726,152.388 171.801,153.107 171.890 M166.900 171.898 C 168.825 171.971,171.975 171.971,173.900 171.898 C 175.825 171.825,174.250 171.765,170.400 171.765 C 166.550 171.765,164.975 171.825,166.900 171.898 M240.900 171.891 C 241.725 171.978,243.075 171.978,243.900 171.891 C 244.725 171.805,244.050 171.734,242.400 171.734 C 240.750 171.734,240.075 171.805,240.900 171.891 M154.975 174.500 L 153.800 175.800 155.100 174.625 C 156.312 173.530,156.584 173.200,156.275 173.200 C 156.206 173.200,155.621 173.785,154.975 174.500 M170.307 175.890 C 171.026 175.979,172.106 175.977,172.707 175.886 C 173.308 175.795,172.720 175.722,171.400 175.724 C 170.080 175.726,169.588 175.801,170.307 175.890 M148.575 181.300 L 147.400 182.600 148.700 181.425 C 149.415 180.779,150.000 180.194,150.000 180.125 C 150.000 179.816,149.670 180.088,148.575 181.300 M140.778 183.100 L 139.400 184.600 140.900 183.222 C 141.725 182.463,142.400 181.788,142.400 181.722 C 142.400 181.416,142.062 181.704,140.778 183.100 M194.501 189.400 C 194.505 190.280,194.587 190.593,194.683 190.095 C 194.779 189.598,194.775 188.878,194.675 188.495 C 194.575 188.113,194.496 188.520,194.501 189.400 M239.717 193.097 C 241.211 193.174,243.551 193.174,244.917 193.096 C 246.282 193.018,245.060 192.955,242.200 192.955 C 239.340 192.956,238.222 193.020,239.717 193.097 M238.700 197.098 C 240.735 197.171,244.065 197.171,246.100 197.098 C 248.135 197.025,246.470 196.966,242.400 196.966 C 238.330 196.966,236.665 197.025,238.700 197.098 M144.700 239.889 C 145.415 239.978,146.585 239.978,147.300 239.889 C 148.015 239.801,147.430 239.728,146.000 239.728 C 144.570 239.728,143.985 239.801,144.700 239.889 M177.107 239.890 C 177.826 239.979,178.906 239.977,179.507 239.886 C 180.108 239.795,179.520 239.722,178.200 239.724 C 176.880 239.726,176.388 239.801,177.107 239.890 M194.307 239.890 C 195.026 239.979,196.106 239.977,196.707 239.886 C 197.308 239.795,196.720 239.722,195.400 239.724 C 194.080 239.726,193.588 239.801,194.307 239.890 M221.491 239.889 C 222.201 239.977,223.461 239.979,224.291 239.892 C 225.121 239.805,224.540 239.733,223.000 239.731 C 221.460 239.729,220.781 239.800,221.491 239.889 M166.500 240.687 C 167.105 240.778,168.095 240.778,168.700 240.687 C 169.305 240.595,168.810 240.520,167.600 240.520 C 166.390 240.520,165.895 240.595,166.500 240.687 M164.979 253.800 C 164.979 261.060,165.033 264.086,165.099 260.525 C 165.165 256.964,165.166 251.024,165.099 247.325 C 165.033 243.626,164.979 246.540,164.979 253.800 M186.971 258.000 C 186.971 262.950,187.028 264.975,187.099 262.500 C 187.169 260.025,187.169 255.975,187.099 253.500 C 187.028 251.025,186.971 253.050,186.971 258.000 M210.134 254.000 C 210.134 255.650,210.205 256.325,210.291 255.500 C 210.378 254.675,210.378 253.325,210.291 252.500 C 210.205 251.675,210.134 252.350,210.134 254.000 " stroke="none" fill="#848c9c" fill-rule="evenodd"></path><path id="path4" d="M207.000 171.600 C 206.496 171.817,206.422 171.944,206.800 171.944 C 207.130 171.944,207.760 171.789,208.200 171.600 C 208.704 171.383,208.778 171.256,208.400 171.256 C 208.070 171.256,207.440 171.411,207.000 171.600 M216.200 171.600 C 216.640 171.789,217.270 171.944,217.600 171.944 C 217.978 171.944,217.904 171.817,217.400 171.600 C 216.960 171.411,216.330 171.256,216.000 171.256 C 215.622 171.256,215.696 171.383,216.200 171.600 M134.492 180.700 C 134.441 185.595,134.535 189.597,134.700 189.594 C 134.865 189.591,135.270 189.394,135.600 189.156 C 136.108 188.790,136.094 188.758,135.508 188.947 C 134.868 189.152,134.807 188.508,134.700 180.484 L 134.584 171.800 134.492 180.700 M149.600 173.800 C 148.628 174.790,147.923 175.600,148.033 175.600 C 148.143 175.600,149.028 174.790,150.000 173.800 C 150.972 172.810,151.677 172.000,151.567 172.000 C 151.457 172.000,150.572 172.810,149.600 173.800 M163.394 189.400 L 163.400 207.000 171.000 207.013 L 178.600 207.026 171.104 206.904 L 163.608 206.783 163.498 189.291 L 163.387 171.800 163.394 189.400 M129.784 189.600 C 129.784 199.170,129.836 203.085,129.900 198.300 C 129.963 193.515,129.963 185.685,129.900 180.900 C 129.836 176.115,129.784 180.030,129.784 189.600 M184.678 174.406 C 185.162 174.956,185.830 176.034,186.163 176.803 C 186.496 177.571,186.776 177.966,186.784 177.680 C 186.809 176.849,185.762 175.066,184.741 174.202 L 183.800 173.406 184.678 174.406 M199.578 175.900 L 198.200 177.400 199.700 176.022 C 200.525 175.263,201.200 174.588,201.200 174.522 C 201.200 174.216,200.862 174.504,199.578 175.900 M210.900 175.087 C 211.505 175.178,212.495 175.178,213.100 175.087 C 213.705 174.995,213.210 174.920,212.000 174.920 C 210.790 174.920,210.295 174.995,210.900 175.087 M224.124 177.000 C 224.126 178.320,224.201 178.812,224.290 178.093 C 224.379 177.374,224.377 176.294,224.286 175.693 C 224.195 175.092,224.122 175.680,224.124 177.000 M150.591 178.900 L 147.400 182.200 150.700 179.009 C 152.515 177.255,154.000 175.770,154.000 175.709 C 154.000 175.418,153.554 175.835,150.591 178.900 M174.505 175.887 C 175.114 175.979,176.014 175.977,176.505 175.882 C 176.997 175.787,176.500 175.711,175.400 175.714 C 174.300 175.717,173.897 175.795,174.505 175.887 M145.186 178.700 L 143.000 181.000 145.300 178.814 C 147.437 176.782,147.783 176.400,147.486 176.400 C 147.424 176.400,146.389 177.435,145.186 178.700 M181.055 177.800 C 181.980 179.379,182.000 179.403,182.000 178.911 C 182.000 178.679,181.629 178.064,181.176 177.544 L 180.353 176.600 181.055 177.800 M241.994 177.212 C 241.492 177.530,241.508 177.589,242.100 177.594 C 242.485 177.597,242.800 177.810,242.800 178.067 C 242.800 178.323,242.906 178.427,243.037 178.297 C 243.535 177.798,242.602 176.828,241.994 177.212 M203.375 178.500 L 202.200 179.800 203.500 178.625 C 204.215 177.979,204.800 177.394,204.800 177.325 C 204.800 177.016,204.470 177.288,203.375 178.500 M139.385 184.900 L 137.400 187.000 139.500 185.015 C 140.655 183.923,141.600 182.978,141.600 182.915 C 141.600 182.617,141.229 182.949,139.385 184.900 M200.229 184.229 C 200.081 184.815,200.038 185.372,200.132 185.466 C 200.227 185.560,200.424 185.158,200.571 184.571 C 200.719 183.985,200.762 183.428,200.668 183.334 C 200.573 183.240,200.376 183.642,200.229 184.229 M238.844 184.844 C 238.598 185.551,238.466 186.200,238.552 186.285 C 238.638 186.371,238.909 185.862,239.156 185.156 C 239.402 184.449,239.534 183.800,239.448 183.715 C 239.362 183.629,239.091 184.138,238.844 184.844 M106.856 184.800 C 106.856 185.130,107.011 185.760,107.200 186.200 C 107.417 186.704,107.544 186.778,107.544 186.400 C 107.544 186.070,107.389 185.440,107.200 185.000 C 106.983 184.496,106.856 184.422,106.856 184.800 M143.381 186.500 L 141.800 188.200 143.500 186.619 C 145.081 185.148,145.384 184.800,145.081 184.800 C 145.016 184.800,144.251 185.565,143.381 186.500 M183.423 185.975 C 182.708 186.765,182.864 187.605,183.724 187.594 C 184.017 187.590,183.976 187.446,183.616 187.218 C 183.116 186.902,183.139 186.730,183.778 186.024 C 184.188 185.571,184.434 185.200,184.324 185.200 C 184.214 185.200,183.808 185.549,183.423 185.975 M194.909 187.600 C 194.909 188.590,194.987 188.995,195.082 188.500 C 195.178 188.005,195.178 187.195,195.082 186.700 C 194.987 186.205,194.909 186.610,194.909 187.600 M170.917 189.897 C 172.411 189.974,174.751 189.974,176.117 189.896 C 177.482 189.818,176.260 189.755,173.400 189.755 C 170.540 189.756,169.422 189.820,170.917 189.897 M188.152 190.967 C 188.728 191.816,189.200 192.697,189.200 192.922 C 189.200 193.148,189.303 193.230,189.429 193.104 C 189.738 192.795,188.619 190.680,187.778 189.982 C 187.407 189.674,187.575 190.117,188.152 190.967 M194.909 191.600 C 194.909 192.590,194.987 192.995,195.082 192.500 C 195.178 192.005,195.178 191.195,195.082 190.700 C 194.987 190.205,194.909 190.610,194.909 191.600 M143.600 190.925 C 143.600 190.994,144.185 191.579,144.900 192.225 L 146.200 193.400 145.025 192.100 C 143.930 190.888,143.600 190.616,143.600 190.925 M136.181 193.300 L 134.600 195.000 136.301 193.418 L 138.002 191.836 139.901 193.618 L 141.800 195.400 140.017 193.500 C 137.863 191.206,138.117 191.219,136.181 193.300 M184.600 196.200 C 184.600 197.834,184.722 198.862,184.872 198.485 C 185.021 198.108,185.144 197.080,185.144 196.200 C 185.144 195.320,185.021 194.292,184.872 193.915 C 184.722 193.538,184.600 194.566,184.600 196.200 M200.056 193.600 C 200.056 193.930,200.211 194.560,200.400 195.000 C 200.617 195.504,200.744 195.578,200.744 195.200 C 200.744 194.870,200.589 194.240,200.400 193.800 C 200.183 193.296,200.056 193.222,200.056 193.600 M146.800 194.525 C 146.800 194.594,147.385 195.179,148.100 195.825 L 149.400 197.000 148.225 195.700 C 147.130 194.488,146.800 194.216,146.800 194.525 M189.714 196.200 C 189.717 197.300,189.795 197.703,189.887 197.095 C 189.979 196.486,189.977 195.586,189.882 195.095 C 189.787 194.603,189.711 195.100,189.714 196.200 M134.560 201.000 C 134.561 204.300,134.622 205.597,134.698 203.882 C 134.773 202.167,134.772 199.467,134.697 197.882 C 134.621 196.297,134.559 197.700,134.560 201.000 M141.600 195.725 C 141.600 195.794,142.185 196.379,142.900 197.025 L 144.200 198.200 143.025 196.900 C 141.930 195.688,141.600 195.416,141.600 195.725 M149.200 197.325 C 149.200 197.394,149.785 197.979,150.500 198.625 L 151.800 199.800 150.625 198.500 C 149.530 197.288,149.200 197.016,149.200 197.325 M201.914 198.604 C 202.141 199.047,202.748 199.766,203.263 200.202 C 204.167 200.966,204.165 200.952,203.206 199.797 C 201.613 197.879,201.479 197.755,201.914 198.604 M110.400 198.647 C 110.400 199.789,111.491 200.574,111.786 199.645 C 111.944 199.147,111.967 198.633,111.837 198.503 C 111.706 198.373,111.594 198.612,111.587 199.033 C 111.575 199.785,111.563 199.784,110.987 199.024 C 110.664 198.596,110.400 198.427,110.400 198.647 M146.400 201.000 C 147.146 201.770,147.847 202.400,147.957 202.400 C 148.067 202.400,147.546 201.770,146.800 201.000 C 146.054 200.230,145.353 199.600,145.243 199.600 C 145.133 199.600,145.654 200.230,146.400 201.000 M224.124 202.200 C 224.126 203.520,224.201 204.012,224.290 203.293 C 224.379 202.574,224.377 201.494,224.286 200.893 C 224.195 200.292,224.122 200.880,224.124 202.200 M153.600 202.200 C 154.346 202.970,155.047 203.600,155.157 203.600 C 155.267 203.600,154.746 202.970,154.000 202.200 C 153.254 201.430,152.553 200.800,152.443 200.800 C 152.333 200.800,152.854 201.430,153.600 202.200 M187.026 203.113 C 185.615 204.803,185.588 204.875,186.760 203.800 C 187.871 202.782,189.088 201.170,188.714 201.213 C 188.651 201.220,187.892 202.075,187.026 203.113 M199.200 202.950 C 199.750 203.571,200.740 204.450,201.400 204.904 C 202.826 205.885,202.443 205.464,200.000 203.368 C 198.804 202.341,198.536 202.201,199.200 202.950 M149.200 204.200 C 149.946 204.970,150.647 205.600,150.757 205.600 C 150.867 205.600,150.346 204.970,149.600 204.200 C 148.854 203.430,148.153 202.800,148.043 202.800 C 147.933 202.800,148.454 203.430,149.200 204.200 M208.600 203.600 C 209.040 203.789,209.760 203.938,210.200 203.932 C 210.843 203.923,210.804 203.857,210.000 203.600 C 208.632 203.162,207.581 203.162,208.600 203.600 M214.200 203.600 C 213.111 203.877,213.093 203.907,214.000 203.925 C 214.550 203.935,215.360 203.789,215.800 203.600 C 216.786 203.176,215.866 203.176,214.200 203.600 M155.600 204.525 C 155.600 204.594,156.185 205.179,156.900 205.825 L 158.200 207.000 157.025 205.700 C 155.930 204.488,155.600 204.216,155.600 204.525 M183.400 205.622 C 182.520 206.038,182.034 206.384,182.320 206.390 C 182.902 206.401,185.200 205.284,185.200 204.990 C 185.200 204.756,185.318 204.714,183.400 205.622 M108.760 206.922 C 108.938 207.099,110.145 207.186,111.442 207.117 L 113.800 206.990 111.118 206.795 C 109.643 206.688,108.582 206.745,108.760 206.922 M226.763 206.924 C 226.942 207.103,227.969 207.190,229.044 207.118 L 231.000 206.987 228.719 206.794 C 227.464 206.687,226.584 206.746,226.763 206.924 M90.307 207.090 C 91.026 207.179,92.106 207.177,92.707 207.086 C 93.308 206.995,92.720 206.922,91.400 206.924 C 90.080 206.926,89.588 207.001,90.307 207.090 M131.305 207.087 C 131.914 207.179,132.814 207.177,133.305 207.082 C 133.797 206.987,133.300 206.911,132.200 206.914 C 131.100 206.917,130.697 206.995,131.305 207.087 M153.091 207.089 C 153.801 207.177,155.061 207.179,155.891 207.092 C 156.721 207.005,156.140 206.933,154.600 206.931 C 153.060 206.929,152.381 207.000,153.091 207.089 M254.500 207.087 C 255.105 207.178,256.095 207.178,256.700 207.087 C 257.305 206.995,256.810 206.920,255.600 206.920 C 254.390 206.920,253.895 206.995,254.500 207.087 M210.700 207.889 C 211.415 207.978,212.585 207.978,213.300 207.889 C 214.015 207.801,213.430 207.728,212.000 207.728 C 210.570 207.728,209.985 207.801,210.700 207.889 M99.383 232.500 C 99.277 232.775,99.240 240.650,99.300 250.000 L 99.409 267.000 99.504 249.733 C 99.578 236.367,99.713 232.421,100.100 232.265 C 100.492 232.107,100.489 232.056,100.087 232.032 C 99.806 232.014,99.489 232.225,99.383 232.500 M121.377 232.515 C 121.268 232.799,121.234 235.994,121.300 239.615 L 121.421 246.200 121.511 239.333 C 121.576 234.283,121.732 232.413,122.100 232.265 C 122.492 232.107,122.489 232.056,122.087 232.032 C 121.806 232.014,121.486 232.232,121.377 232.515 M165.286 253.900 C 165.239 261.215,165.335 267.200,165.500 267.200 C 165.665 267.201,165.754 263.286,165.698 258.500 C 165.506 242.105,165.372 240.609,165.286 253.900 M169.640 241.676 C 169.594 242.920,170.259 243.505,170.935 242.817 C 171.289 242.455,171.266 242.373,170.835 242.471 C 170.515 242.544,170.143 242.167,169.975 241.600 L 169.680 240.600 169.640 241.676 M200.000 240.925 C 200.000 240.994,200.585 241.579,201.300 242.225 L 202.600 243.400 201.425 242.100 C 200.330 240.888,200.000 240.616,200.000 240.925 M137.381 243.300 L 135.800 245.000 137.500 243.419 C 139.081 241.948,139.384 241.600,139.081 241.600 C 139.016 241.600,138.251 242.365,137.381 243.300 M154.000 243.000 C 154.746 243.770,155.447 244.400,155.557 244.400 C 155.667 244.400,155.146 243.770,154.400 243.000 C 153.654 242.230,152.953 241.600,152.843 241.600 C 152.733 241.600,153.254 242.230,154.000 243.000 M214.676 242.900 C 213.430 244.133,213.425 244.149,214.581 243.203 C 215.252 242.655,215.971 242.070,216.180 241.903 C 216.389 241.736,216.431 241.600,216.274 241.600 C 216.117 241.600,215.398 242.185,214.676 242.900 M143.646 243.963 C 143.305 244.179,143.842 244.241,145.046 244.124 C 147.755 243.860,148.133 243.668,146.000 243.638 C 145.010 243.624,143.951 243.770,143.646 243.963 M177.200 243.755 C 177.200 243.840,177.730 243.987,178.379 244.082 C 179.027 244.177,179.467 244.108,179.355 243.928 C 179.157 243.607,177.200 243.450,177.200 243.755 M192.000 244.018 C 191.562 244.315,191.724 244.352,192.600 244.156 C 194.071 243.827,194.390 243.598,193.367 243.606 C 192.945 243.609,192.330 243.795,192.000 244.018 M194.433 243.744 C 194.525 243.823,195.140 244.008,195.800 244.156 C 196.676 244.352,196.838 244.315,196.400 244.018 C 195.860 243.653,194.032 243.398,194.433 243.744 M220.400 244.006 C 219.978 244.282,220.215 244.323,221.200 244.142 C 222.925 243.825,223.251 243.598,221.967 243.606 C 221.435 243.609,220.730 243.789,220.400 244.006 M140.806 245.794 C 140.063 246.561,139.532 247.237,139.627 247.298 C 139.722 247.358,140.456 246.731,141.259 245.904 C 142.061 245.077,142.591 244.400,142.437 244.400 C 142.283 244.400,141.549 245.027,140.806 245.794 M227.734 245.707 C 228.430 246.426,229.077 246.964,229.171 246.903 C 229.399 246.754,227.131 244.400,226.759 244.400 C 226.599 244.400,227.038 244.988,227.734 245.707 M216.929 246.100 C 216.484 246.595,215.976 247.270,215.801 247.600 C 215.463 248.237,215.555 248.150,217.176 246.300 C 217.706 245.695,218.049 245.200,217.939 245.200 C 217.829 245.200,217.375 245.605,216.929 246.100 M108.522 246.299 C 110.899 246.370,114.679 246.369,116.922 246.298 C 119.165 246.227,117.220 246.169,112.600 246.169 C 107.980 246.170,106.145 246.228,108.522 246.299 M170.276 246.716 C 169.589 247.475,169.023 267.358,169.700 266.939 C 169.865 266.836,170.000 262.413,170.000 257.108 C 170.000 248.695,170.085 247.370,170.662 246.731 C 171.026 246.329,171.234 246.000,171.124 246.000 C 171.014 246.000,170.632 246.322,170.276 246.716 M203.774 256.800 C 203.774 262.410,203.830 264.705,203.899 261.900 C 203.968 259.095,203.968 254.505,203.899 251.700 C 203.830 248.895,203.774 251.190,203.774 256.800 M233.882 248.821 C 234.008 249.799,234.175 250.675,234.255 250.767 C 234.581 251.142,234.360 248.155,234.021 247.621 C 233.784 247.246,233.735 247.670,233.882 248.821 M182.082 257.076 C 182.037 262.398,182.135 266.837,182.300 266.939 C 182.465 267.041,182.554 264.217,182.497 260.663 C 182.305 248.586,182.165 247.376,182.082 257.076 M199.281 257.476 C 199.237 262.578,199.335 266.837,199.500 266.939 C 199.665 267.041,199.754 264.307,199.697 260.863 C 199.507 249.302,199.363 248.133,199.281 257.476 M215.049 249.015 C 214.912 249.373,214.815 249.966,214.834 250.333 C 214.853 250.700,215.027 250.469,215.221 249.820 C 215.598 248.558,215.465 247.933,215.049 249.015 M229.693 249.600 C 229.693 250.370,229.775 250.685,229.876 250.300 C 229.976 249.915,229.976 249.285,229.876 248.900 C 229.775 248.515,229.693 248.830,229.693 249.600 M133.856 250.084 C 133.721 250.588,133.638 252.440,133.671 254.200 L 133.732 257.400 133.992 253.400 C 134.269 249.148,134.247 248.624,133.856 250.084 M121.280 258.276 C 121.236 262.938,121.335 266.837,121.500 266.939 C 121.665 267.042,121.753 264.577,121.696 261.463 C 121.502 250.866,121.361 249.783,121.280 258.276 M153.334 254.000 C 153.334 255.650,153.405 256.325,153.491 255.500 C 153.578 254.675,153.578 253.325,153.491 252.500 C 153.405 251.675,153.334 252.350,153.334 254.000 M158.131 253.800 C 158.133 255.340,158.205 255.921,158.292 255.091 C 158.379 254.261,158.377 253.001,158.289 252.291 C 158.200 251.581,158.129 252.260,158.131 253.800 M214.868 255.800 C 214.862 256.240,215.011 256.960,215.200 257.400 C 215.638 258.419,215.638 257.368,215.200 256.000 C 214.943 255.196,214.877 255.157,214.868 255.800 M210.456 257.600 C 210.456 257.930,210.611 258.560,210.800 259.000 C 211.017 259.504,211.144 259.578,211.144 259.200 C 211.144 258.870,210.989 258.240,210.800 257.800 C 210.583 257.296,210.456 257.222,210.456 257.600 M233.674 263.220 C 233.633 264.441,233.421 265.657,233.201 265.921 C 232.982 266.186,233.083 266.160,233.425 265.864 C 233.884 265.466,234.007 264.761,233.897 263.163 L 233.748 261.000 233.674 263.220 M136.181 263.181 C 136.889 264.331,138.196 265.671,139.000 266.072 C 139.473 266.308,139.346 266.089,138.688 265.536 C 138.077 265.021,137.177 264.141,136.688 263.581 C 136.200 263.021,135.971 262.841,136.181 263.181 M212.800 263.325 C 212.800 263.394,213.385 263.979,214.100 264.625 L 215.400 265.800 214.225 264.500 C 213.130 263.288,212.800 263.016,212.800 263.325 M142.000 267.582 C 142.330 267.805,142.945 267.991,143.367 267.994 C 144.390 268.002,144.071 267.773,142.600 267.444 C 141.724 267.248,141.562 267.285,142.000 267.582 M148.600 267.600 C 147.493 267.882,147.477 267.909,148.400 267.947 C 148.950 267.969,149.670 267.813,150.000 267.600 C 150.681 267.160,150.329 267.160,148.600 267.600 M219.600 267.594 C 219.930 267.811,220.635 267.991,221.167 267.994 C 222.451 268.002,222.125 267.775,220.400 267.458 C 219.415 267.277,219.178 267.318,219.600 267.594 " stroke="none" fill="#8c8c9c" fill-rule="evenodd"></path></g></svg>