<?xml version="1.0" standalone="no"?>
<!DOCTYPE svg PUBLIC "-//W3C//DTD SVG 20010904//EN"
 "http://www.w3.org/TR/2001/REC-SVG-20010904/DTD/svg10.dtd">

<svg version="1.0" xmlns="http://www.w3.org/2000/svg">

<g transform="translate(0.000000,50.000000) scale(0.0100000,-0.0100000)" fill="#0b3765" stroke="none">

<path d="M47 4602 c-4 -275 -4 -590 -1 -699 l7 -198 151 -33 c83 -17 174 -35
201 -38 62 -8 143 -30 200 -55 55 -24 67 -54 68 -168 1 -106 -9 -123 -84 -141
-72 -17 -88 -56 -44 -104 14 -15 25 -38 25 -51 0 -14 6 -42 14 -62 8 -21 24
-74 36 -118 12 -44 27 -86 34 -93 9 -9 11 -27 5 -62 -4 -27 -4 -63 1 -78 7
-27 5 -30 -36 -50 -24 -12 -44 -28 -44 -35 0 -38 -99 -69 -165 -53 -23 6 -27
11 -23 36 3 20 -1 35 -12 45 -15 14 -20 12 -53 -21 -23 -24 -45 -62 -63 -110
-24 -66 -26 -84 -21 -150 4 -41 11 -83 17 -94 5 -10 10 -67 10 -127 0 -65 6
-127 15 -155 17 -56 57 -128 86 -154 35 -31 68 -91 94 -166 13 -39 32 -80 43
-92 10 -11 31 -43 46 -69 15 -26 40 -62 55 -80 16 -18 38 -50 49 -72 57 -111
368 -296 607 -360 33 -9 80 -27 105 -40 25 -13 68 -29 95 -35 89 -21 179 -52
230 -80 34 -19 95 -36 190 -54 77 -15 174 -40 216 -56 100 -38 182 -50 347
-51 118 -1 145 2 197 21 33 12 80 26 105 32 25 5 83 18 130 29 48 10 123 19
169 19 67 0 90 4 117 20 33 21 317 130 338 130 6 0 51 20 100 44 135 67 228
153 383 352 72 93 157 198 188 234 110 126 116 139 126 258 9 119 0 168 -61
332 -23 62 -33 106 -35 160 -5 121 -24 142 -74 79 -18 -21 -59 -57 -92 -80
-71 -48 -92 -47 -154 9 -23 20 -55 45 -71 55 -16 9 -51 33 -78 52 -26 19 -51
35 -55 35 -4 0 -17 -18 -29 -39 -29 -51 -57 -61 -88 -30 -20 20 -22 31 -17 68
5 38 16 54 83 120 96 96 105 123 97 289 -7 148 -28 242 -77 336 -32 62 -38 82
-33 113 9 63 31 105 74 141 63 54 114 166 129 284 14 111 33 148 98 189 31 21
77 47 102 59 75 37 105 65 150 142 62 104 85 132 154 187 64 51 141 83 175 74
25 -6 26 -15 6 -53 -23 -45 -58 -239 -51 -285 4 -22 18 -78 32 -124 42 -139
45 -174 22 -280 -16 -72 -18 -101 -11 -126 10 -30 8 -34 -13 -44 -21 -9 -23
-13 -12 -36 8 -18 19 -25 39 -25 15 0 54 -7 86 -15 33 -8 122 -22 199 -30 81
-8 160 -22 189 -33 36 -15 55 -17 70 -10 22 10 22 12 28 496 6 438 -5 1247
-17 1259 -2 2 -1131 7 -2508 10 l-2505 6 -6 -501z"/>
</g>
</svg>
